solid OpenSCAD_Model
  facet normal -0.258036 0.966135 0
    outer loop
      vertex 11.146 90.852 3
      vertex 11.629 90.981 3
      vertex 11.146 90.852 0
    endloop
  endfacet
  facet normal -0.258036 0.966135 0
    outer loop
      vertex 11.146 90.852 0
      vertex 11.629 90.981 3
      vertex 11.629 90.981 0
    endloop
  endfacet
  facet normal 0 0 -1
    outer loop
      vertex 4 83.706 0
      vertex 11.146 90.852 0
      vertex 3.707 82.975 0
    endloop
  endfacet
  facet normal 0 0 -1
    outer loop
      vertex 3.707 82.975 0
      vertex 11.146 90.852 0
      vertex 11.629 90.981 0
    endloop
  endfacet
  facet normal 0 0 -1
    outer loop
      vertex 3.707 82.975 0
      vertex 11.629 90.981 0
      vertex 12.168 91.178 0
    endloop
  endfacet
  facet normal 0 0 -1
    outer loop
      vertex 11.629 91.947 0
      vertex 11.146 92.077 0
      vertex 9.99 93.232 0
    endloop
  endfacet
  facet normal 0 0 -1
    outer loop
      vertex 11.629 91.947 0
      vertex 9.99 93.232 0
      vertex 12.168 91.751 0
    endloop
  endfacet
  facet normal 0 0 -1
    outer loop
      vertex 12.168 91.751 0
      vertex 9.99 93.232 0
      vertex 9.844 93.586 0
    endloop
  endfacet
  facet normal 0 0 -1
    outer loop
      vertex 12.168 91.751 0
      vertex 9.844 93.586 0
      vertex 9.99 93.939 0
    endloop
  endfacet
  facet normal 0 0 -1
    outer loop
      vertex 12.168 91.751 0
      vertex 9.99 93.939 0
      vertex 13.526 97.475 0
    endloop
  endfacet
  facet normal 0 0 -1
    outer loop
      vertex 12.168 91.751 0
      vertex 13.526 97.475 0
      vertex 12.168 91.178 0
    endloop
  endfacet
  facet normal 0 0 -1
    outer loop
      vertex 12.168 91.178 0
      vertex 13.526 97.475 0
      vertex 13.879 97.621 0
    endloop
  endfacet
  facet normal 0 0 -1
    outer loop
      vertex 12.168 91.178 0
      vertex 13.879 97.621 0
      vertex 14.233 97.475 0
    endloop
  endfacet
  facet normal 0 0 -1
    outer loop
      vertex 12.168 91.178 0
      vertex 14.233 97.475 0
      vertex 15.388 96.319 0
    endloop
  endfacet
  facet normal 0 0 -1
    outer loop
      vertex 12.168 91.178 0
      vertex 15.388 96.319 0
      vertex 15.518 95.836 0
    endloop
  endfacet
  facet normal 0 0 -1
    outer loop
      vertex 12.168 91.178 0
      vertex 15.518 95.836 0
      vertex 15.714 95.297 0
    endloop
  endfacet
  facet normal 0 0 -1
    outer loop
      vertex 12.168 91.178 0
      vertex 22.365 97.828 0
      vertex 3.707 82.975 0
    endloop
  endfacet
  facet normal 0 0 -1
    outer loop
      vertex 15.714 95.297 0
      vertex 16.288 95.297 0
      vertex 12.168 91.178 0
    endloop
  endfacet
  facet normal 0 0 -1
    outer loop
      vertex 16.484 95.836 0
      vertex 16.613 96.319 0
      vertex 20.243 99.95 0
    endloop
  endfacet
  facet normal 0 0 -1
    outer loop
      vertex 16.484 95.836 0
      vertex 20.243 99.95 0
      vertex 16.288 95.297 0
    endloop
  endfacet
  facet normal 0 0 -1
    outer loop
      vertex 16.288 95.297 0
      vertex 20.243 99.95 0
      vertex 22.365 97.828 0
    endloop
  endfacet
  facet normal 0 0 -1
    outer loop
      vertex 16.288 95.297 0
      vertex 22.365 97.828 0
      vertex 12.168 91.178 0
    endloop
  endfacet
  facet normal 0 0 -1
    outer loop
      vertex 3.707 82.975 0
      vertex 22.365 97.828 0
      vertex 21.463 96.927 0
    endloop
  endfacet
  facet normal 0 0 -1
    outer loop
      vertex 3.707 82.975 0
      vertex 21.463 96.927 0
      vertex 24.292 94.098 0
    endloop
  endfacet
  facet normal 0 0 -1
    outer loop
      vertex 24.292 94.098 0
      vertex 25.193 95 0
      vertex 27.314 92.879 0
    endloop
  endfacet
  facet normal 0 0 -1
    outer loop
      vertex 24.292 94.098 0
      vertex 27.314 92.879 0
      vertex 3.707 82.975 0
    endloop
  endfacet
  facet normal 0 0 -1
    outer loop
      vertex 27.314 92.879 0
      vertex 40.502 6.142 0
      vertex 3.707 82.975 0
    endloop
  endfacet
  facet normal 0 0 -1
    outer loop
      vertex 29.577 95.141 0
      vertex 27.456 97.263 0
      vertex 28.357 98.164 0
    endloop
  endfacet
  facet normal 0 0 -1
    outer loop
      vertex 28.357 98.164 0
      vertex 26.136 105.843 0
      vertex 29.577 95.141 0
    endloop
  endfacet
  facet normal 0 0 -1
    outer loop
      vertex 29.613 22.203 0
      vertex 28.393 19.18 0
      vertex 27.491 20.082 0
    endloop
  endfacet
  facet normal 0 0 -1
    outer loop
      vertex 25.529 100.993 0
      vertex 26.136 105.843 0
      vertex 28.357 98.164 0
    endloop
  endfacet
  facet normal 0 0 -1
    outer loop
      vertex 22.506 102.212 0
      vertex 26.136 105.843 0
      vertex 25.529 100.993 0
    endloop
  endfacet
  facet normal 0 0 -1
    outer loop
      vertex 29.577 95.141 0
      vertex 26.136 105.843 0
      vertex 26.619 105.972 0
    endloop
  endfacet
  facet normal 0 0 -1
    outer loop
      vertex 29.577 95.141 0
      vertex 26.619 105.972 0
      vertex 27.158 106.168 0
    endloop
  endfacet
  facet normal 0 0 -1
    outer loop
      vertex 27.158 106.168 0
      vertex 27.158 106.742 0
      vertex 29.577 95.141 0
    endloop
  endfacet
  facet normal 0 0 -1
    outer loop
      vertex 26.619 106.938 0
      vertex 26.136 107.067 0
      vertex 24.981 108.223 0
    endloop
  endfacet
  facet normal 0 0 -1
    outer loop
      vertex 26.619 106.938 0
      vertex 24.981 108.223 0
      vertex 27.158 106.742 0
    endloop
  endfacet
  facet normal 0 0 -1
    outer loop
      vertex 27.158 106.742 0
      vertex 24.981 108.223 0
      vertex 24.835 108.576 0
    endloop
  endfacet
  facet normal 0 0 -1
    outer loop
      vertex 27.158 106.742 0
      vertex 24.835 108.576 0
      vertex 24.981 108.93 0
    endloop
  endfacet
  facet normal 0 0 -1
    outer loop
      vertex 27.158 106.742 0
      vertex 24.981 108.93 0
      vertex 28.517 112.465 0
    endloop
  endfacet
  facet normal 0 0 -1
    outer loop
      vertex 27.158 106.742 0
      vertex 28.517 112.465 0
      vertex 29.577 95.141 0
    endloop
  endfacet
  facet normal 0 0 -1
    outer loop
      vertex 29.577 95.141 0
      vertex 28.517 112.465 0
      vertex 28.87 112.612 0
    endloop
  endfacet
  facet normal 0 0 -1
    outer loop
      vertex 29.577 95.141 0
      vertex 28.87 112.612 0
      vertex 29.224 112.465 0
    endloop
  endfacet
  facet normal 0 0 -1
    outer loop
      vertex 29.577 95.141 0
      vertex 29.224 112.465 0
      vertex 30.379 111.31 0
    endloop
  endfacet
  facet normal 0 0 -1
    outer loop
      vertex 29.577 95.141 0
      vertex 30.379 111.31 0
      vertex 30.508 110.827 0
    endloop
  endfacet
  facet normal 0 0 -1
    outer loop
      vertex 29.577 95.141 0
      vertex 30.508 110.827 0
      vertex 30.705 110.288 0
    endloop
  endfacet
  facet normal 0 0 -1
    outer loop
      vertex 30.705 110.288 0
      vertex 31.278 110.288 0
      vertex 29.577 95.141 0
    endloop
  endfacet
  facet normal 0 0 -1
    outer loop
      vertex 31.278 110.288 0
      vertex 31.474 110.827 0
      vertex 29.577 95.141 0
    endloop
  endfacet
  facet normal 0 0 -1
    outer loop
      vertex 31.474 110.827 0
      vertex 31.604 111.31 0
      vertex 29.577 95.141 0
    endloop
  endfacet
  facet normal 0 0 -1
    outer loop
      vertex 29.577 95.141 0
      vertex 31.604 111.31 0
      vertex 37.638 117.344 0
    endloop
  endfacet
  facet normal 0 0 -1
    outer loop
      vertex 29.577 95.141 0
      vertex 37.638 117.344 0
      vertex 38.123 116.859 0
    endloop
  endfacet
  facet normal 0 0 -1
    outer loop
      vertex 29.577 95.141 0
      vertex 38.123 116.859 0
      vertex 39.118 115.647 0
    endloop
  endfacet
  facet normal 0 0 -1
    outer loop
      vertex 29.577 95.141 0
      vertex 39.118 115.647 0
      vertex 39.858 114.264 0
    endloop
  endfacet
  facet normal 0 0 -1
    outer loop
      vertex 29.577 95.141 0
      vertex 39.858 114.264 0
      vertex 40.313 112.763 0
    endloop
  endfacet
  facet normal 0 0 -1
    outer loop
      vertex 29.577 95.141 0
      vertex 40.313 112.763 0
      vertex 40.467 111.202 0
    endloop
  endfacet
  facet normal 0 0 -1
    outer loop
      vertex 29.577 95.141 0
      vertex 40.467 111.202 0
      vertex 40.502 6.142 0
    endloop
  endfacet
  facet normal 0 0 -1
    outer loop
      vertex 29.577 95.141 0
      vertex 40.502 6.142 0
      vertex 27.314 92.879 0
    endloop
  endfacet
  facet normal 0 0 -1
    outer loop
      vertex 3.707 82.975 0
      vertex 40.502 6.142 0
      vertex 40.348 4.581 0
    endloop
  endfacet
  facet normal 0 0 -1
    outer loop
      vertex 3.707 82.975 0
      vertex 40.348 4.581 0
      vertex 39.893 3.081 0
    endloop
  endfacet
  facet normal 0 0 -1
    outer loop
      vertex 3.707 82.975 0
      vertex 39.893 3.081 0
      vertex 39.154 1.698 0
    endloop
  endfacet
  facet normal 0 0 -1
    outer loop
      vertex 29.613 22.203 0
      vertex 39.154 1.698 0
      vertex 38.159 0.485 0
    endloop
  endfacet
  facet normal 0 0 -1
    outer loop
      vertex 31.51 6.517 0
      vertex 37.674 0 0
      vertex 31.639 6.034 0
    endloop
  endfacet
  facet normal 0 0 -1
    outer loop
      vertex 31.314 7.056 0
      vertex 37.674 0 0
      vertex 31.51 6.517 0
    endloop
  endfacet
  facet normal 0 0 -1
    outer loop
      vertex 28.393 19.18 0
      vertex 37.674 0 0
      vertex 31.314 7.056 0
    endloop
  endfacet
  facet normal 0 0 -1
    outer loop
      vertex 25.016 9.122 0
      vertex 25.016 8.415 0
      vertex 24.87 8.768 0
    endloop
  endfacet
  facet normal 0 0 -1
    outer loop
      vertex 27.35 24.466 0
      vertex 3.707 82.975 0
      vertex 29.613 22.203 0
    endloop
  endfacet
  facet normal 0 0 -1
    outer loop
      vertex 25.564 16.352 0
      vertex 30.414 6.034 0
      vertex 29.259 4.879 0
    endloop
  endfacet
  facet normal 0 0 -1
    outer loop
      vertex 27.194 10.603 0
      vertex 29.259 4.879 0
      vertex 28.905 4.733 0
    endloop
  endfacet
  facet normal 0 0 -1
    outer loop
      vertex 25.016 9.122 0
      vertex 28.552 4.879 0
      vertex 25.016 8.415 0
    endloop
  endfacet
  facet normal 0 0 -1
    outer loop
      vertex 27.194 10.603 0
      vertex 28.552 4.879 0
      vertex 26.655 10.406 0
    endloop
  endfacet
  facet normal 0 0 -1
    outer loop
      vertex 26.172 10.277 0
      vertex 28.552 4.879 0
      vertex 25.016 9.122 0
    endloop
  endfacet
  facet normal 0 0 -1
    outer loop
      vertex 27.194 10.603 0
      vertex 28.905 4.733 0
      vertex 28.552 4.879 0
    endloop
  endfacet
  facet normal 0 0 -1
    outer loop
      vertex 26.655 10.406 0
      vertex 28.552 4.879 0
      vertex 26.172 10.277 0
    endloop
  endfacet
  facet normal 0 0 -1
    outer loop
      vertex 24.327 23.246 0
      vertex 3.707 82.975 0
      vertex 25.229 22.345 0
    endloop
  endfacet
  facet normal 0 0 -1
    outer loop
      vertex 27.194 11.176 0
      vertex 29.259 4.879 0
      vertex 27.194 10.603 0
    endloop
  endfacet
  facet normal 0 0 -1
    outer loop
      vertex 28.393 19.18 0
      vertex 30.544 6.517 0
      vertex 30.414 6.034 0
    endloop
  endfacet
  facet normal 0 0 -1
    outer loop
      vertex 28.393 19.18 0
      vertex 30.74 7.056 0
      vertex 30.544 6.517 0
    endloop
  endfacet
  facet normal 0 0 -1
    outer loop
      vertex 26.172 11.502 0
      vertex 24.663 17.253 0
      vertex 26.655 11.372 0
    endloop
  endfacet
  facet normal 0 0 -1
    outer loop
      vertex 25.564 16.352 0
      vertex 26.655 11.372 0
      vertex 24.663 17.253 0
    endloop
  endfacet
  facet normal 0 0 -1
    outer loop
      vertex 20.279 17.395 0
      vertex 3.707 82.975 0
      vertex 21.499 20.418 0
    endloop
  endfacet
  facet normal 0 0 -1
    outer loop
      vertex 21.499 20.418 0
      vertex 3.707 82.975 0
      vertex 24.327 23.246 0
    endloop
  endfacet
  facet normal 0 0 -1
    outer loop
      vertex 24.663 17.253 0
      vertex 26.172 11.502 0
      vertex 22.542 15.132 0
    endloop
  endfacet
  facet normal 0 0 -1
    outer loop
      vertex 28.393 19.18 0
      vertex 30.414 6.034 0
      vertex 25.564 16.352 0
    endloop
  endfacet
  facet normal 0 0 -1
    outer loop
      vertex 28.393 19.18 0
      vertex 31.314 7.056 0
      vertex 30.74 7.056 0
    endloop
  endfacet
  facet normal 0 0 -1
    outer loop
      vertex 29.613 22.203 0
      vertex 38.159 0.485 0
      vertex 37.674 0 0
    endloop
  endfacet
  facet normal 0 0 -1
    outer loop
      vertex 29.613 22.203 0
      vertex 37.674 0 0
      vertex 28.393 19.18 0
    endloop
  endfacet
  facet normal 0 0 -1
    outer loop
      vertex 3.707 82.975 0
      vertex 39.154 1.698 0
      vertex 29.613 22.203 0
    endloop
  endfacet
  facet normal 0 0 -1
    outer loop
      vertex 25.229 22.345 0
      vertex 3.707 82.975 0
      vertex 27.35 24.466 0
    endloop
  endfacet
  facet normal 0 0 -1
    outer loop
      vertex 20.279 17.395 0
      vertex 21.499 20.418 0
      vertex 22.4 19.516 0
    endloop
  endfacet
  facet normal 0 0 -1
    outer loop
      vertex 10.026 24.112 0
      vertex 10.026 23.405 0
      vertex 9.879 23.759 0
    endloop
  endfacet
  facet normal 0 0 -1
    outer loop
      vertex 20.279 17.395 0
      vertex 16.649 21.025 0
      vertex 3.707 82.975 0
    endloop
  endfacet
  facet normal 0 0 -1
    outer loop
      vertex 3.707 82.975 0
      vertex 16.649 21.025 0
      vertex 16.519 21.508 0
    endloop
  endfacet
  facet normal 0 0 -1
    outer loop
      vertex 3.707 82.975 0
      vertex 16.519 21.508 0
      vertex 16.323 22.047 0
    endloop
  endfacet
  facet normal 0 0 -1
    outer loop
      vertex 16.323 22.047 0
      vertex 15.749 22.047 0
      vertex 3.707 82.975 0
    endloop
  endfacet
  facet normal 0 0 -1
    outer loop
      vertex 15.749 22.047 0
      vertex 15.553 21.508 0
      vertex 3.707 82.975 0
    endloop
  endfacet
  facet normal 0 0 -1
    outer loop
      vertex 15.553 21.508 0
      vertex 15.424 21.025 0
      vertex 3.707 82.975 0
    endloop
  endfacet
  facet normal 0 0 -1
    outer loop
      vertex 3.707 82.975 0
      vertex 15.424 21.025 0
      vertex 14.268 19.87 0
    endloop
  endfacet
  facet normal 0 0 -1
    outer loop
      vertex 3.707 82.975 0
      vertex 14.268 19.87 0
      vertex 13.915 19.723 0
    endloop
  endfacet
  facet normal 0 0 -1
    outer loop
      vertex 3.707 82.975 0
      vertex 13.915 19.723 0
      vertex 13.561 19.87 0
    endloop
  endfacet
  facet normal 0 0 -1
    outer loop
      vertex 10.026 24.112 0
      vertex 13.561 19.87 0
      vertex 10.026 23.405 0
    endloop
  endfacet
  facet normal 0 0 -1
    outer loop
      vertex 11.181 25.268 0
      vertex 13.561 19.87 0
      vertex 10.026 24.112 0
    endloop
  endfacet
  facet normal 0 0 -1
    outer loop
      vertex 11.664 26.363 0
      vertex 3.707 82.975 0
      vertex 12.203 26.167 0
    endloop
  endfacet
  facet normal 0 0 -1
    outer loop
      vertex 11.664 25.397 0
      vertex 13.561 19.87 0
      vertex 11.181 25.268 0
    endloop
  endfacet
  facet normal 0 0 -1
    outer loop
      vertex 12.203 25.593 0
      vertex 13.561 19.87 0
      vertex 11.664 25.397 0
    endloop
  endfacet
  facet normal 0 0 -1
    outer loop
      vertex 12.203 26.167 0
      vertex 13.561 19.87 0
      vertex 12.203 25.593 0
    endloop
  endfacet
  facet normal 0 0 -1
    outer loop
      vertex 3.707 82.975 0
      vertex 13.561 19.87 0
      vertex 12.203 26.167 0
    endloop
  endfacet
  facet normal 0 0 -1
    outer loop
      vertex 11.181 26.492 0
      vertex 3.707 82.975 0
      vertex 11.664 26.363 0
    endloop
  endfacet
  facet normal 0 0 -1
    outer loop
      vertex 4.015 33.658 0
      vertex 3.707 82.975 0
      vertex 11.181 26.492 0
    endloop
  endfacet
  facet normal 0 0 -1
    outer loop
      vertex 3.707 82.975 0
      vertex 4.015 33.658 0
      vertex 3.723 34.341 0
    endloop
  endfacet
  facet normal 0 0 -1
    outer loop
      vertex 22.506 102.212 0
      vertex 25.529 100.993 0
      vertex 24.627 100.091 0
    endloop
  endfacet
  facet normal 0 0 -1
    outer loop
      vertex 25.564 16.352 0
      vertex 27.194 11.176 0
      vertex 26.655 11.372 0
    endloop
  endfacet
  facet normal 0 0 -1
    outer loop
      vertex 25.564 16.352 0
      vertex 29.259 4.879 0
      vertex 27.194 11.176 0
    endloop
  endfacet
  facet normal -0.343282 0.939233 0
    outer loop
      vertex 11.629 90.981 3
      vertex 12.168 91.178 3
      vertex 11.629 90.981 0
    endloop
  endfacet
  facet normal -0.343282 0.939233 0
    outer loop
      vertex 11.629 90.981 0
      vertex 12.168 91.178 3
      vertex 12.168 91.178 0
    endloop
  endfacet
  facet normal -0.707107 0.707107 0
    outer loop
      vertex 4 83.706 3
      vertex 11.146 90.852 3
      vertex 4 83.706 0
    endloop
  endfacet
  facet normal -0.707107 0.707107 0
    outer loop
      vertex 4 83.706 0
      vertex 11.146 90.852 3
      vertex 11.146 90.852 0
    endloop
  endfacet
  facet normal 0 0 1
    outer loop
      vertex 3.707 82.975 3
      vertex 3.723 34.341 3
      vertex 4.015 33.658 3
    endloop
  endfacet
  facet normal 0 0 1
    outer loop
      vertex 11.664 26.363 3
      vertex 3.707 82.975 3
      vertex 11.181 26.492 3
    endloop
  endfacet
  facet normal 0 0 1
    outer loop
      vertex 11.181 26.492 3
      vertex 3.707 82.975 3
      vertex 4.015 33.658 3
    endloop
  endfacet
  facet normal 0 0 1
    outer loop
      vertex 12.203 26.167 3
      vertex 3.707 82.975 3
      vertex 11.664 26.363 3
    endloop
  endfacet
  facet normal 0 0 1
    outer loop
      vertex 13.561 19.87 3
      vertex 3.707 82.975 3
      vertex 12.203 26.167 3
    endloop
  endfacet
  facet normal 0 0 1
    outer loop
      vertex 13.561 19.87 3
      vertex 12.203 26.167 3
      vertex 12.203 25.593 3
    endloop
  endfacet
  facet normal 0 0 1
    outer loop
      vertex 10.026 24.112 3
      vertex 12.203 25.593 3
      vertex 11.664 25.397 3
    endloop
  endfacet
  facet normal 0 0 1
    outer loop
      vertex 10.026 24.112 3
      vertex 11.664 25.397 3
      vertex 11.181 25.268 3
    endloop
  endfacet
  facet normal 0 0 1
    outer loop
      vertex 9.879 23.759 3
      vertex 12.203 25.593 3
      vertex 10.026 24.112 3
    endloop
  endfacet
  facet normal 0 0 1
    outer loop
      vertex 10.026 23.405 3
      vertex 12.203 25.593 3
      vertex 9.879 23.759 3
    endloop
  endfacet
  facet normal 0 0 1
    outer loop
      vertex 13.561 19.87 3
      vertex 12.203 25.593 3
      vertex 10.026 23.405 3
    endloop
  endfacet
  facet normal 0 0 1
    outer loop
      vertex 13.915 19.723 3
      vertex 3.707 82.975 3
      vertex 13.561 19.87 3
    endloop
  endfacet
  facet normal 0 0 1
    outer loop
      vertex 14.268 19.87 3
      vertex 3.707 82.975 3
      vertex 13.915 19.723 3
    endloop
  endfacet
  facet normal 0 0 1
    outer loop
      vertex 15.424 21.025 3
      vertex 3.707 82.975 3
      vertex 14.268 19.87 3
    endloop
  endfacet
  facet normal 0 0 1
    outer loop
      vertex 15.553 21.508 3
      vertex 3.707 82.975 3
      vertex 15.424 21.025 3
    endloop
  endfacet
  facet normal 0 0 1
    outer loop
      vertex 15.749 22.047 3
      vertex 3.707 82.975 3
      vertex 15.553 21.508 3
    endloop
  endfacet
  facet normal 0 0 1
    outer loop
      vertex 16.323 22.047 3
      vertex 3.707 82.975 3
      vertex 15.749 22.047 3
    endloop
  endfacet
  facet normal 0 0 1
    outer loop
      vertex 16.519 21.508 3
      vertex 3.707 82.975 3
      vertex 16.323 22.047 3
    endloop
  endfacet
  facet normal 0 0 1
    outer loop
      vertex 16.649 21.025 3
      vertex 3.707 82.975 3
      vertex 16.519 21.508 3
    endloop
  endfacet
  facet normal 0 0 1
    outer loop
      vertex 20.279 17.395 3
      vertex 3.707 82.975 3
      vertex 16.649 21.025 3
    endloop
  endfacet
  facet normal 0 0 1
    outer loop
      vertex 21.499 20.418 3
      vertex 3.707 82.975 3
      vertex 20.279 17.395 3
    endloop
  endfacet
  facet normal 0 0 1
    outer loop
      vertex 22.4 19.516 3
      vertex 21.499 20.418 3
      vertex 20.279 17.395 3
    endloop
  endfacet
  facet normal 0 0 1
    outer loop
      vertex 24.663 17.253 3
      vertex 22.542 15.132 3
      vertex 25.564 16.352 3
    endloop
  endfacet
  facet normal 0 0 1
    outer loop
      vertex 25.229 22.345 3
      vertex 3.707 82.975 3
      vertex 24.327 23.246 3
    endloop
  endfacet
  facet normal 0 0 1
    outer loop
      vertex 27.35 24.466 3
      vertex 3.707 82.975 3
      vertex 25.229 22.345 3
    endloop
  endfacet
  facet normal 0 0 1
    outer loop
      vertex 29.613 22.203 3
      vertex 3.707 82.975 3
      vertex 27.35 24.466 3
    endloop
  endfacet
  facet normal 0 0 1
    outer loop
      vertex 39.154 1.698 3
      vertex 3.707 82.975 3
      vertex 29.613 22.203 3
    endloop
  endfacet
  facet normal 0 0 1
    outer loop
      vertex 28.393 19.18 3
      vertex 29.613 22.203 3
      vertex 27.491 20.082 3
    endloop
  endfacet
  facet normal 0 0 1
    outer loop
      vertex 26.172 11.502 3
      vertex 29.613 22.203 3
      vertex 28.393 19.18 3
    endloop
  endfacet
  facet normal 0 0 1
    outer loop
      vertex 26.172 11.502 3
      vertex 28.393 19.18 3
      vertex 25.564 16.352 3
    endloop
  endfacet
  facet normal 0 0 1
    outer loop
      vertex 24.981 108.223 3
      vertex 29.224 112.465 3
      vertex 28.87 112.612 3
    endloop
  endfacet
  facet normal 0 0 1
    outer loop
      vertex 26.172 11.502 3
      vertex 25.564 16.352 3
      vertex 22.542 15.132 3
    endloop
  endfacet
  facet normal 0 0 1
    outer loop
      vertex 26.655 11.372 3
      vertex 29.613 22.203 3
      vertex 26.172 11.502 3
    endloop
  endfacet
  facet normal 0 0 1
    outer loop
      vertex 27.194 11.176 3
      vertex 29.613 22.203 3
      vertex 26.655 11.372 3
    endloop
  endfacet
  facet normal 0 0 1
    outer loop
      vertex 27.194 10.603 3
      vertex 29.613 22.203 3
      vertex 27.194 11.176 3
    endloop
  endfacet
  facet normal 0 0 1
    outer loop
      vertex 28.552 4.879 3
      vertex 29.613 22.203 3
      vertex 27.194 10.603 3
    endloop
  endfacet
  facet normal 0 0 1
    outer loop
      vertex 25.016 9.122 3
      vertex 27.194 10.603 3
      vertex 26.655 10.406 3
    endloop
  endfacet
  facet normal 0 0 1
    outer loop
      vertex 25.016 9.122 3
      vertex 26.655 10.406 3
      vertex 26.172 10.277 3
    endloop
  endfacet
  facet normal 0 0 1
    outer loop
      vertex 24.87 8.768 3
      vertex 27.194 10.603 3
      vertex 25.016 9.122 3
    endloop
  endfacet
  facet normal 0 0 1
    outer loop
      vertex 25.016 8.415 3
      vertex 27.194 10.603 3
      vertex 24.87 8.768 3
    endloop
  endfacet
  facet normal 0 0 1
    outer loop
      vertex 28.552 4.879 3
      vertex 27.194 10.603 3
      vertex 25.016 8.415 3
    endloop
  endfacet
  facet normal 0 0 1
    outer loop
      vertex 28.905 4.733 3
      vertex 29.613 22.203 3
      vertex 28.552 4.879 3
    endloop
  endfacet
  facet normal 0 0 1
    outer loop
      vertex 29.259 4.879 3
      vertex 29.613 22.203 3
      vertex 28.905 4.733 3
    endloop
  endfacet
  facet normal 0 0 1
    outer loop
      vertex 30.414 6.034 3
      vertex 29.613 22.203 3
      vertex 29.259 4.879 3
    endloop
  endfacet
  facet normal 0 0 1
    outer loop
      vertex 30.544 6.517 3
      vertex 29.613 22.203 3
      vertex 30.414 6.034 3
    endloop
  endfacet
  facet normal 0 0 1
    outer loop
      vertex 30.74 7.056 3
      vertex 29.613 22.203 3
      vertex 30.544 6.517 3
    endloop
  endfacet
  facet normal 0 0 1
    outer loop
      vertex 31.314 7.056 3
      vertex 29.613 22.203 3
      vertex 30.74 7.056 3
    endloop
  endfacet
  facet normal 0 0 1
    outer loop
      vertex 31.51 6.517 3
      vertex 29.613 22.203 3
      vertex 31.314 7.056 3
    endloop
  endfacet
  facet normal 0 0 1
    outer loop
      vertex 31.639 6.034 3
      vertex 29.613 22.203 3
      vertex 31.51 6.517 3
    endloop
  endfacet
  facet normal 0 0 1
    outer loop
      vertex 37.674 0 3
      vertex 29.613 22.203 3
      vertex 31.639 6.034 3
    endloop
  endfacet
  facet normal 0 0 1
    outer loop
      vertex 38.159 0.485 3
      vertex 29.613 22.203 3
      vertex 37.674 0 3
    endloop
  endfacet
  facet normal 0 0 1
    outer loop
      vertex 39.154 1.698 3
      vertex 29.613 22.203 3
      vertex 38.159 0.485 3
    endloop
  endfacet
  facet normal 0 0 1
    outer loop
      vertex 39.893 3.081 3
      vertex 3.707 82.975 3
      vertex 39.154 1.698 3
    endloop
  endfacet
  facet normal 0 0 1
    outer loop
      vertex 40.348 4.581 3
      vertex 3.707 82.975 3
      vertex 39.893 3.081 3
    endloop
  endfacet
  facet normal 0 0 1
    outer loop
      vertex 40.502 6.142 3
      vertex 3.707 82.975 3
      vertex 40.348 4.581 3
    endloop
  endfacet
  facet normal 0 0 1
    outer loop
      vertex 27.314 92.879 3
      vertex 3.707 82.975 3
      vertex 40.502 6.142 3
    endloop
  endfacet
  facet normal 0 0 1
    outer loop
      vertex 27.456 97.263 3
      vertex 29.577 95.141 3
      vertex 28.357 98.164 3
    endloop
  endfacet
  facet normal 0 0 1
    outer loop
      vertex 25.529 100.993 3
      vertex 28.357 98.164 3
      vertex 40.467 111.202 3
    endloop
  endfacet
  facet normal 0 0 1
    outer loop
      vertex 24.835 108.576 3
      vertex 24.981 108.223 3
      vertex 28.517 112.465 3
    endloop
  endfacet
  facet normal 0 0 1
    outer loop
      vertex 37.638 117.344 3
      vertex 31.474 110.827 3
      vertex 38.123 116.859 3
    endloop
  endfacet
  facet normal 0 0 1
    outer loop
      vertex 31.474 110.827 3
      vertex 31.278 110.288 3
      vertex 38.123 116.859 3
    endloop
  endfacet
  facet normal 0 0 1
    outer loop
      vertex 22.365 97.828 3
      vertex 20.243 99.95 3
      vertex 16.484 95.836 3
    endloop
  endfacet
  facet normal 0 0 1
    outer loop
      vertex 22.506 102.212 3
      vertex 26.619 105.972 3
      vertex 26.136 105.843 3
    endloop
  endfacet
  facet normal 0 0 1
    outer loop
      vertex 11.146 90.852 3
      vertex 4 83.706 3
      vertex 3.707 82.975 3
    endloop
  endfacet
  facet normal 0 0 1
    outer loop
      vertex 12.168 91.751 3
      vertex 12.168 91.178 3
      vertex 16.288 95.297 3
    endloop
  endfacet
  facet normal 0 0 1
    outer loop
      vertex 9.99 93.232 3
      vertex 13.879 97.621 3
      vertex 13.526 97.475 3
    endloop
  endfacet
  facet normal 0 0 1
    outer loop
      vertex 24.981 108.93 3
      vertex 24.835 108.576 3
      vertex 28.517 112.465 3
    endloop
  endfacet
  facet normal 0 0 1
    outer loop
      vertex 9.99 93.232 3
      vertex 14.233 97.475 3
      vertex 13.879 97.621 3
    endloop
  endfacet
  facet normal 0 0 1
    outer loop
      vertex 28.517 112.465 3
      vertex 24.981 108.223 3
      vertex 28.87 112.612 3
    endloop
  endfacet
  facet normal 0 0 1
    outer loop
      vertex 29.224 112.465 3
      vertex 26.136 107.067 3
      vertex 30.379 111.31 3
    endloop
  endfacet
  facet normal 0 0 1
    outer loop
      vertex 30.379 111.31 3
      vertex 26.619 106.938 3
      vertex 30.508 110.827 3
    endloop
  endfacet
  facet normal 0 0 1
    outer loop
      vertex 31.278 110.288 3
      vertex 27.158 106.168 3
      vertex 38.123 116.859 3
    endloop
  endfacet
  facet normal 0 0 1
    outer loop
      vertex 9.99 93.232 3
      vertex 11.146 92.077 3
      vertex 14.233 97.475 3
    endloop
  endfacet
  facet normal 0 0 1
    outer loop
      vertex 29.577 95.141 3
      vertex 27.314 92.879 3
      vertex 40.502 6.142 3
    endloop
  endfacet
  facet normal 0 0 1
    outer loop
      vertex 40.467 111.202 3
      vertex 29.577 95.141 3
      vertex 40.502 6.142 3
    endloop
  endfacet
  facet normal 0 0 1
    outer loop
      vertex 40.467 111.202 3
      vertex 28.357 98.164 3
      vertex 29.577 95.141 3
    endloop
  endfacet
  facet normal 0 0 1
    outer loop
      vertex 24.292 94.098 3
      vertex 3.707 82.975 3
      vertex 27.314 92.879 3
    endloop
  endfacet
  facet normal 0 0 1
    outer loop
      vertex 22.365 97.828 3
      vertex 12.168 91.178 3
      vertex 3.707 82.975 3
    endloop
  endfacet
  facet normal 0 0 1
    outer loop
      vertex 25.193 95 3
      vertex 24.292 94.098 3
      vertex 27.314 92.879 3
    endloop
  endfacet
  facet normal 0 0 1
    outer loop
      vertex 22.365 97.828 3
      vertex 16.288 95.297 3
      vertex 12.168 91.178 3
    endloop
  endfacet
  facet normal 0 0 1
    outer loop
      vertex 22.365 97.828 3
      vertex 3.707 82.975 3
      vertex 21.463 96.927 3
    endloop
  endfacet
  facet normal 0 0 1
    outer loop
      vertex 24.292 94.098 3
      vertex 21.463 96.927 3
      vertex 3.707 82.975 3
    endloop
  endfacet
  facet normal 0 0 1
    outer loop
      vertex 22.365 97.828 3
      vertex 16.484 95.836 3
      vertex 16.288 95.297 3
    endloop
  endfacet
  facet normal 0 0 1
    outer loop
      vertex 12.168 91.178 3
      vertex 11.629 90.981 3
      vertex 3.707 82.975 3
    endloop
  endfacet
  facet normal 0 0 1
    outer loop
      vertex 25.529 100.993 3
      vertex 40.313 112.763 3
      vertex 39.858 114.264 3
    endloop
  endfacet
  facet normal 0 0 1
    outer loop
      vertex 25.529 100.993 3
      vertex 40.467 111.202 3
      vertex 40.313 112.763 3
    endloop
  endfacet
  facet normal 0 0 1
    outer loop
      vertex 11.629 90.981 3
      vertex 11.146 90.852 3
      vertex 3.707 82.975 3
    endloop
  endfacet
  facet normal 0 0 1
    outer loop
      vertex 12.168 91.751 3
      vertex 16.288 95.297 3
      vertex 15.714 95.297 3
    endloop
  endfacet
  facet normal 0 0 1
    outer loop
      vertex 26.136 107.067 3
      vertex 26.619 106.938 3
      vertex 30.379 111.31 3
    endloop
  endfacet
  facet normal 0 0 1
    outer loop
      vertex 11.146 92.077 3
      vertex 11.629 91.947 3
      vertex 15.388 96.319 3
    endloop
  endfacet
  facet normal 0 0 1
    outer loop
      vertex 11.629 91.947 3
      vertex 15.714 95.297 3
      vertex 15.518 95.836 3
    endloop
  endfacet
  facet normal 0 0 1
    outer loop
      vertex 11.629 91.947 3
      vertex 12.168 91.751 3
      vertex 15.714 95.297 3
    endloop
  endfacet
  facet normal 0 0 1
    outer loop
      vertex 9.99 93.939 3
      vertex 9.844 93.586 3
      vertex 13.526 97.475 3
    endloop
  endfacet
  facet normal 0 0 1
    outer loop
      vertex 9.844 93.586 3
      vertex 9.99 93.232 3
      vertex 13.526 97.475 3
    endloop
  endfacet
  facet normal 0 0 1
    outer loop
      vertex 15.388 96.319 3
      vertex 11.629 91.947 3
      vertex 15.518 95.836 3
    endloop
  endfacet
  facet normal 0 0 1
    outer loop
      vertex 27.158 106.742 3
      vertex 31.278 110.288 3
      vertex 30.705 110.288 3
    endloop
  endfacet
  facet normal 0 0 1
    outer loop
      vertex 27.158 106.742 3
      vertex 27.158 106.168 3
      vertex 31.278 110.288 3
    endloop
  endfacet
  facet normal 0 0 1
    outer loop
      vertex 16.613 96.319 3
      vertex 16.484 95.836 3
      vertex 20.243 99.95 3
    endloop
  endfacet
  facet normal 0 0 1
    outer loop
      vertex 15.388 96.319 3
      vertex 14.233 97.475 3
      vertex 11.146 92.077 3
    endloop
  endfacet
  facet normal 0 0 1
    outer loop
      vertex 21.499 20.418 3
      vertex 24.327 23.246 3
      vertex 3.707 82.975 3
    endloop
  endfacet
  facet normal 0 0 1
    outer loop
      vertex 31.604 111.31 3
      vertex 31.474 110.827 3
      vertex 37.638 117.344 3
    endloop
  endfacet
  facet normal 0 0 1
    outer loop
      vertex 24.981 108.223 3
      vertex 26.136 107.067 3
      vertex 29.224 112.465 3
    endloop
  endfacet
  facet normal 0 0 1
    outer loop
      vertex 26.619 106.938 3
      vertex 30.705 110.288 3
      vertex 30.508 110.827 3
    endloop
  endfacet
  facet normal 0 0 1
    outer loop
      vertex 26.619 106.938 3
      vertex 27.158 106.742 3
      vertex 30.705 110.288 3
    endloop
  endfacet
  facet normal 0 0 1
    outer loop
      vertex 22.506 102.212 3
      vertex 27.158 106.168 3
      vertex 26.619 105.972 3
    endloop
  endfacet
  facet normal 0 0 1
    outer loop
      vertex 27.158 106.168 3
      vertex 39.118 115.647 3
      vertex 38.123 116.859 3
    endloop
  endfacet
  facet normal 0 0 1
    outer loop
      vertex 22.506 102.212 3
      vertex 39.118 115.647 3
      vertex 27.158 106.168 3
    endloop
  endfacet
  facet normal 0 0 1
    outer loop
      vertex 22.506 102.212 3
      vertex 39.858 114.264 3
      vertex 39.118 115.647 3
    endloop
  endfacet
  facet normal 0 0 1
    outer loop
      vertex 22.506 102.212 3
      vertex 25.529 100.993 3
      vertex 39.858 114.264 3
    endloop
  endfacet
  facet normal 0 0 1
    outer loop
      vertex 22.506 102.212 3
      vertex 24.627 100.091 3
      vertex 25.529 100.993 3
    endloop
  endfacet
  facet normal -1 -0.000328988 0
    outer loop
      vertex 3.723 34.341 0
      vertex 3.723 34.341 3
      vertex 3.707 82.975 0
    endloop
  endfacet
  facet normal -1 -0.000328988 0
    outer loop
      vertex 3.707 82.975 0
      vertex 3.723 34.341 3
      vertex 3.707 82.975 3
    endloop
  endfacet
  facet normal -0.928214 0.372047 0
    outer loop
      vertex 3.707 82.975 3
      vertex 4 83.706 3
      vertex 3.707 82.975 0
    endloop
  endfacet
  facet normal -0.928214 0.372047 0
    outer loop
      vertex 3.707 82.975 0
      vertex 4 83.706 3
      vertex 4 83.706 0
    endloop
  endfacet
  facet normal -0.919493 -0.393107 0
    outer loop
      vertex 4.015 33.658 0
      vertex 4.015 33.658 3
      vertex 3.723 34.341 0
    endloop
  endfacet
  facet normal -0.919493 -0.393107 0
    outer loop
      vertex 3.723 34.341 0
      vertex 4.015 33.658 3
      vertex 3.723 34.341 3
    endloop
  endfacet
  facet normal -0.707107 -0.707107 0
    outer loop
      vertex 11.181 26.492 0
      vertex 11.181 26.492 3
      vertex 4.015 33.658 0
    endloop
  endfacet
  facet normal -0.707107 -0.707107 0
    outer loop
      vertex 4.015 33.658 0
      vertex 11.181 26.492 3
      vertex 4.015 33.658 3
    endloop
  endfacet
  facet normal -0.258036 -0.966135 0
    outer loop
      vertex 11.181 26.492 0
      vertex 11.664 26.363 0
      vertex 11.664 26.363 3
    endloop
  endfacet
  facet normal -0.258036 -0.966135 0
    outer loop
      vertex 11.181 26.492 3
      vertex 11.181 26.492 0
      vertex 11.664 26.363 3
    endloop
  endfacet
  facet normal -0.341743 -0.939793 0
    outer loop
      vertex 11.664 26.363 0
      vertex 12.203 26.167 0
      vertex 12.203 26.167 3
    endloop
  endfacet
  facet normal -0.341743 -0.939793 0
    outer loop
      vertex 11.664 26.363 3
      vertex 11.664 26.363 0
      vertex 12.203 26.167 3
    endloop
  endfacet
  facet normal -1 0 0
    outer loop
      vertex 12.203 25.593 3
      vertex 12.203 26.167 3
      vertex 12.203 25.593 0
    endloop
  endfacet
  facet normal -1 0 0
    outer loop
      vertex 12.203 25.593 0
      vertex 12.203 26.167 3
      vertex 12.203 26.167 0
    endloop
  endfacet
  facet normal -0.341743 0.939793 0
    outer loop
      vertex 11.664 25.397 3
      vertex 12.203 25.593 3
      vertex 11.664 25.397 0
    endloop
  endfacet
  facet normal -0.341743 0.939793 0
    outer loop
      vertex 11.664 25.397 0
      vertex 12.203 25.593 3
      vertex 12.203 25.593 0
    endloop
  endfacet
  facet normal -0.258036 0.966135 0
    outer loop
      vertex 11.181 25.268 3
      vertex 11.664 25.397 3
      vertex 11.181 25.268 0
    endloop
  endfacet
  facet normal -0.258036 0.966135 0
    outer loop
      vertex 11.181 25.268 0
      vertex 11.664 25.397 3
      vertex 11.664 25.397 0
    endloop
  endfacet
  facet normal -0.707413 0.706801 0
    outer loop
      vertex 10.026 24.112 3
      vertex 11.181 25.268 3
      vertex 10.026 24.112 0
    endloop
  endfacet
  facet normal -0.707413 0.706801 0
    outer loop
      vertex 10.026 24.112 0
      vertex 11.181 25.268 3
      vertex 11.181 25.268 0
    endloop
  endfacet
  facet normal -0.923154 0.38443 0
    outer loop
      vertex 9.879 23.759 3
      vertex 10.026 24.112 3
      vertex 9.879 23.759 0
    endloop
  endfacet
  facet normal -0.923154 0.38443 0
    outer loop
      vertex 9.879 23.759 0
      vertex 10.026 24.112 3
      vertex 10.026 24.112 0
    endloop
  endfacet
  facet normal -0.923539 -0.383504 0
    outer loop
      vertex 10.026 23.405 0
      vertex 10.026 23.405 3
      vertex 9.879 23.759 0
    endloop
  endfacet
  facet normal -0.923539 -0.383504 0
    outer loop
      vertex 9.879 23.759 0
      vertex 10.026 23.405 3
      vertex 9.879 23.759 3
    endloop
  endfacet
  facet normal -0.707107 -0.707107 0
    outer loop
      vertex 10.026 23.405 0
      vertex 13.561 19.87 0
      vertex 13.561 19.87 3
    endloop
  endfacet
  facet normal -0.707107 -0.707107 0
    outer loop
      vertex 10.026 23.405 3
      vertex 10.026 23.405 0
      vertex 13.561 19.87 3
    endloop
  endfacet
  facet normal -0.383504 -0.923539 0
    outer loop
      vertex 13.561 19.87 0
      vertex 13.915 19.723 0
      vertex 13.915 19.723 3
    endloop
  endfacet
  facet normal -0.383504 -0.923539 0
    outer loop
      vertex 13.561 19.87 3
      vertex 13.561 19.87 0
      vertex 13.915 19.723 3
    endloop
  endfacet
  facet normal 0.38443 -0.923154 0
    outer loop
      vertex 13.915 19.723 0
      vertex 14.268 19.87 0
      vertex 14.268 19.87 3
    endloop
  endfacet
  facet normal 0.38443 -0.923154 0
    outer loop
      vertex 13.915 19.723 3
      vertex 13.915 19.723 0
      vertex 14.268 19.87 3
    endloop
  endfacet
  facet normal 0.706801 -0.707413 0
    outer loop
      vertex 14.268 19.87 0
      vertex 15.424 21.025 0
      vertex 15.424 21.025 3
    endloop
  endfacet
  facet normal 0.706801 -0.707413 0
    outer loop
      vertex 14.268 19.87 3
      vertex 14.268 19.87 0
      vertex 15.424 21.025 3
    endloop
  endfacet
  facet normal 0.966135 -0.258036 0
    outer loop
      vertex 15.424 21.025 0
      vertex 15.553 21.508 0
      vertex 15.553 21.508 3
    endloop
  endfacet
  facet normal 0.966135 -0.258036 0
    outer loop
      vertex 15.424 21.025 3
      vertex 15.424 21.025 0
      vertex 15.553 21.508 3
    endloop
  endfacet
  facet normal 0.939793 -0.341743 0
    outer loop
      vertex 15.553 21.508 0
      vertex 15.749 22.047 0
      vertex 15.749 22.047 3
    endloop
  endfacet
  facet normal 0.939793 -0.341743 0
    outer loop
      vertex 15.553 21.508 3
      vertex 15.553 21.508 0
      vertex 15.749 22.047 3
    endloop
  endfacet
  facet normal 0 -1 0
    outer loop
      vertex 15.749 22.047 0
      vertex 16.323 22.047 0
      vertex 16.323 22.047 3
    endloop
  endfacet
  facet normal 0 -1 0
    outer loop
      vertex 15.749 22.047 3
      vertex 15.749 22.047 0
      vertex 16.323 22.047 3
    endloop
  endfacet
  facet normal -0.939793 -0.341743 0
    outer loop
      vertex 16.519 21.508 0
      vertex 16.519 21.508 3
      vertex 16.323 22.047 0
    endloop
  endfacet
  facet normal -0.939793 -0.341743 0
    outer loop
      vertex 16.323 22.047 0
      vertex 16.519 21.508 3
      vertex 16.323 22.047 3
    endloop
  endfacet
  facet normal -0.965635 -0.259902 0
    outer loop
      vertex 16.649 21.025 0
      vertex 16.649 21.025 3
      vertex 16.519 21.508 0
    endloop
  endfacet
  facet normal -0.965635 -0.259902 0
    outer loop
      vertex 16.519 21.508 0
      vertex 16.649 21.025 3
      vertex 16.519 21.508 3
    endloop
  endfacet
  facet normal -0.707107 -0.707107 0
    outer loop
      vertex 16.649 21.025 0
      vertex 20.279 17.395 0
      vertex 20.279 17.395 3
    endloop
  endfacet
  facet normal -0.707107 -0.707107 0
    outer loop
      vertex 16.649 21.025 3
      vertex 16.649 21.025 0
      vertex 20.279 17.395 3
    endloop
  endfacet
  facet normal 0.707107 -0.707107 0
    outer loop
      vertex 20.279 17.395 0
      vertex 22.4 19.516 0
      vertex 22.4 19.516 3
    endloop
  endfacet
  facet normal 0.707107 -0.707107 0
    outer loop
      vertex 20.279 17.395 3
      vertex 20.279 17.395 0
      vertex 22.4 19.516 3
    endloop
  endfacet
  facet normal 0.707499 0.706714 0
    outer loop
      vertex 21.499 20.418 0
      vertex 21.499 20.418 3
      vertex 22.4 19.516 3
    endloop
  endfacet
  facet normal 0.707499 0.706714 0
    outer loop
      vertex 22.4 19.516 0
      vertex 21.499 20.418 0
      vertex 22.4 19.516 3
    endloop
  endfacet
  facet normal 0.707107 -0.707107 0
    outer loop
      vertex 21.499 20.418 0
      vertex 24.327 23.246 0
      vertex 24.327 23.246 3
    endloop
  endfacet
  facet normal 0.707107 -0.707107 0
    outer loop
      vertex 21.499 20.418 3
      vertex 21.499 20.418 0
      vertex 24.327 23.246 3
    endloop
  endfacet
  facet normal -0.706714 -0.707499 0
    outer loop
      vertex 24.327 23.246 0
      vertex 25.229 22.345 0
      vertex 25.229 22.345 3
    endloop
  endfacet
  facet normal -0.706714 -0.707499 0
    outer loop
      vertex 24.327 23.246 3
      vertex 24.327 23.246 0
      vertex 25.229 22.345 3
    endloop
  endfacet
  facet normal 0.707107 -0.707107 0
    outer loop
      vertex 25.229 22.345 0
      vertex 27.35 24.466 0
      vertex 27.35 24.466 3
    endloop
  endfacet
  facet normal 0.707107 -0.707107 0
    outer loop
      vertex 25.229 22.345 3
      vertex 25.229 22.345 0
      vertex 27.35 24.466 3
    endloop
  endfacet
  facet normal -0.707107 -0.707107 0
    outer loop
      vertex 27.35 24.466 0
      vertex 29.613 22.203 0
      vertex 29.613 22.203 3
    endloop
  endfacet
  facet normal -0.707107 -0.707107 0
    outer loop
      vertex 27.35 24.466 3
      vertex 27.35 24.466 0
      vertex 29.613 22.203 3
    endloop
  endfacet
  facet normal -0.70694 0.707273 0
    outer loop
      vertex 27.491 20.082 3
      vertex 29.613 22.203 3
      vertex 27.491 20.082 0
    endloop
  endfacet
  facet normal -0.70694 0.707273 0
    outer loop
      vertex 27.491 20.082 0
      vertex 29.613 22.203 3
      vertex 29.613 22.203 0
    endloop
  endfacet
  facet normal -0.707107 -0.707107 0
    outer loop
      vertex 28.393 19.18 0
      vertex 28.393 19.18 3
      vertex 27.491 20.082 0
    endloop
  endfacet
  facet normal -0.707107 -0.707107 0
    outer loop
      vertex 27.491 20.082 0
      vertex 28.393 19.18 3
      vertex 27.491 20.082 3
    endloop
  endfacet
  facet normal -0.706982 0.707232 0
    outer loop
      vertex 25.564 16.352 3
      vertex 28.393 19.18 3
      vertex 25.564 16.352 0
    endloop
  endfacet
  facet normal -0.706982 0.707232 0
    outer loop
      vertex 25.564 16.352 0
      vertex 28.393 19.18 3
      vertex 28.393 19.18 0
    endloop
  endfacet
  facet normal 0.707107 0.707107 0
    outer loop
      vertex 24.663 17.253 3
      vertex 25.564 16.352 3
      vertex 24.663 17.253 0
    endloop
  endfacet
  facet normal 0.707107 0.707107 0
    outer loop
      vertex 24.663 17.253 0
      vertex 25.564 16.352 3
      vertex 25.564 16.352 0
    endloop
  endfacet
  facet normal -0.707107 0.707107 0
    outer loop
      vertex 22.542 15.132 3
      vertex 24.663 17.253 3
      vertex 22.542 15.132 0
    endloop
  endfacet
  facet normal -0.707107 0.707107 0
    outer loop
      vertex 22.542 15.132 0
      vertex 24.663 17.253 3
      vertex 24.663 17.253 0
    endloop
  endfacet
  facet normal -0.707107 -0.707107 0
    outer loop
      vertex 26.172 11.502 0
      vertex 26.172 11.502 3
      vertex 22.542 15.132 0
    endloop
  endfacet
  facet normal -0.707107 -0.707107 0
    outer loop
      vertex 22.542 15.132 0
      vertex 26.172 11.502 3
      vertex 22.542 15.132 3
    endloop
  endfacet
  facet normal -0.259902 -0.965635 0
    outer loop
      vertex 26.172 11.502 0
      vertex 26.655 11.372 0
      vertex 26.655 11.372 3
    endloop
  endfacet
  facet normal -0.259902 -0.965635 0
    outer loop
      vertex 26.172 11.502 3
      vertex 26.172 11.502 0
      vertex 26.655 11.372 3
    endloop
  endfacet
  facet normal -0.341743 -0.939793 0
    outer loop
      vertex 26.655 11.372 0
      vertex 27.194 11.176 0
      vertex 27.194 11.176 3
    endloop
  endfacet
  facet normal -0.341743 -0.939793 0
    outer loop
      vertex 26.655 11.372 3
      vertex 26.655 11.372 0
      vertex 27.194 11.176 3
    endloop
  endfacet
  facet normal -1 0 0
    outer loop
      vertex 27.194 10.603 3
      vertex 27.194 11.176 3
      vertex 27.194 10.603 0
    endloop
  endfacet
  facet normal -1 0 0
    outer loop
      vertex 27.194 10.603 0
      vertex 27.194 11.176 3
      vertex 27.194 11.176 0
    endloop
  endfacet
  facet normal -0.343282 0.939233 0
    outer loop
      vertex 26.655 10.406 3
      vertex 27.194 10.603 3
      vertex 26.655 10.406 0
    endloop
  endfacet
  facet normal -0.343282 0.939233 0
    outer loop
      vertex 26.655 10.406 0
      vertex 27.194 10.603 3
      vertex 27.194 10.603 0
    endloop
  endfacet
  facet normal -0.258036 0.966135 0
    outer loop
      vertex 26.172 10.277 3
      vertex 26.655 10.406 3
      vertex 26.172 10.277 0
    endloop
  endfacet
  facet normal -0.258036 0.966135 0
    outer loop
      vertex 26.172 10.277 0
      vertex 26.655 10.406 3
      vertex 26.655 10.406 0
    endloop
  endfacet
  facet normal -0.706801 0.707413 0
    outer loop
      vertex 25.016 9.122 3
      vertex 26.172 10.277 3
      vertex 25.016 9.122 0
    endloop
  endfacet
  facet normal -0.706801 0.707413 0
    outer loop
      vertex 25.016 9.122 0
      vertex 26.172 10.277 3
      vertex 26.172 10.277 0
    endloop
  endfacet
  facet normal -0.924462 0.381275 0
    outer loop
      vertex 24.87 8.768 3
      vertex 25.016 9.122 3
      vertex 24.87 8.768 0
    endloop
  endfacet
  facet normal -0.924462 0.381275 0
    outer loop
      vertex 24.87 8.768 0
      vertex 25.016 9.122 3
      vertex 25.016 9.122 0
    endloop
  endfacet
  facet normal -0.924081 -0.382198 0
    outer loop
      vertex 25.016 8.415 0
      vertex 25.016 8.415 3
      vertex 24.87 8.768 0
    endloop
  endfacet
  facet normal -0.924081 -0.382198 0
    outer loop
      vertex 24.87 8.768 0
      vertex 25.016 8.415 3
      vertex 24.87 8.768 3
    endloop
  endfacet
  facet normal -0.707107 -0.707107 0
    outer loop
      vertex 25.016 8.415 0
      vertex 28.552 4.879 0
      vertex 28.552 4.879 3
    endloop
  endfacet
  facet normal -0.707107 -0.707107 0
    outer loop
      vertex 25.016 8.415 3
      vertex 25.016 8.415 0
      vertex 28.552 4.879 3
    endloop
  endfacet
  facet normal -0.382198 -0.924081 0
    outer loop
      vertex 28.552 4.879 0
      vertex 28.905 4.733 0
      vertex 28.905 4.733 3
    endloop
  endfacet
  facet normal -0.382198 -0.924081 0
    outer loop
      vertex 28.552 4.879 3
      vertex 28.552 4.879 0
      vertex 28.905 4.733 3
    endloop
  endfacet
  facet normal 0.381275 -0.924462 0
    outer loop
      vertex 28.905 4.733 0
      vertex 29.259 4.879 0
      vertex 29.259 4.879 3
    endloop
  endfacet
  facet normal 0.381275 -0.924462 0
    outer loop
      vertex 28.905 4.733 3
      vertex 28.905 4.733 0
      vertex 29.259 4.879 3
    endloop
  endfacet
  facet normal 0.707107 -0.707107 0
    outer loop
      vertex 29.259 4.879 0
      vertex 30.414 6.034 0
      vertex 30.414 6.034 3
    endloop
  endfacet
  facet normal 0.707107 -0.707107 0
    outer loop
      vertex 29.259 4.879 3
      vertex 29.259 4.879 0
      vertex 30.414 6.034 3
    endloop
  endfacet
  facet normal 0.965635 -0.259902 0
    outer loop
      vertex 30.414 6.034 0
      vertex 30.544 6.517 0
      vertex 30.544 6.517 3
    endloop
  endfacet
  facet normal 0.965635 -0.259902 0
    outer loop
      vertex 30.414 6.034 3
      vertex 30.414 6.034 0
      vertex 30.544 6.517 3
    endloop
  endfacet
  facet normal 0.939793 -0.341743 0
    outer loop
      vertex 30.544 6.517 0
      vertex 30.74 7.056 0
      vertex 30.74 7.056 3
    endloop
  endfacet
  facet normal 0.939793 -0.341743 0
    outer loop
      vertex 30.544 6.517 3
      vertex 30.544 6.517 0
      vertex 30.74 7.056 3
    endloop
  endfacet
  facet normal 0 -1 0
    outer loop
      vertex 30.74 7.056 0
      vertex 31.314 7.056 0
      vertex 31.314 7.056 3
    endloop
  endfacet
  facet normal 0 -1 0
    outer loop
      vertex 30.74 7.056 3
      vertex 30.74 7.056 0
      vertex 31.314 7.056 3
    endloop
  endfacet
  facet normal -0.939793 -0.341743 0
    outer loop
      vertex 31.51 6.517 0
      vertex 31.51 6.517 3
      vertex 31.314 7.056 0
    endloop
  endfacet
  facet normal -0.939793 -0.341743 0
    outer loop
      vertex 31.314 7.056 0
      vertex 31.51 6.517 3
      vertex 31.314 7.056 3
    endloop
  endfacet
  facet normal -0.966135 -0.258036 0
    outer loop
      vertex 31.639 6.034 0
      vertex 31.639 6.034 3
      vertex 31.51 6.517 0
    endloop
  endfacet
  facet normal -0.966135 -0.258036 0
    outer loop
      vertex 31.51 6.517 0
      vertex 31.639 6.034 3
      vertex 31.51 6.517 3
    endloop
  endfacet
  facet normal -0.707048 -0.707165 0
    outer loop
      vertex 31.639 6.034 0
      vertex 37.674 0 0
      vertex 37.674 0 3
    endloop
  endfacet
  facet normal -0.707048 -0.707165 0
    outer loop
      vertex 31.639 6.034 3
      vertex 31.639 6.034 0
      vertex 37.674 0 3
    endloop
  endfacet
  facet normal 0.707107 -0.707107 0
    outer loop
      vertex 37.674 0 0
      vertex 38.159 0.485 0
      vertex 38.159 0.485 3
    endloop
  endfacet
  facet normal 0.707107 -0.707107 0
    outer loop
      vertex 37.674 0 3
      vertex 37.674 0 0
      vertex 38.159 0.485 3
    endloop
  endfacet
  facet normal 0.773162 -0.634209 0
    outer loop
      vertex 38.159 0.485 0
      vertex 39.154 1.698 0
      vertex 39.154 1.698 3
    endloop
  endfacet
  facet normal 0.773162 -0.634209 0
    outer loop
      vertex 38.159 0.485 3
      vertex 38.159 0.485 0
      vertex 39.154 1.698 3
    endloop
  endfacet
  facet normal 0.881982 -0.471283 0
    outer loop
      vertex 39.154 1.698 0
      vertex 39.893 3.081 0
      vertex 39.893 3.081 3
    endloop
  endfacet
  facet normal 0.881982 -0.471283 0
    outer loop
      vertex 39.154 1.698 3
      vertex 39.154 1.698 0
      vertex 39.893 3.081 3
    endloop
  endfacet
  facet normal 0.956944 -0.290273 0
    outer loop
      vertex 39.893 3.081 0
      vertex 40.348 4.581 0
      vertex 40.348 4.581 3
    endloop
  endfacet
  facet normal 0.956944 -0.290273 0
    outer loop
      vertex 39.893 3.081 3
      vertex 39.893 3.081 0
      vertex 40.348 4.581 3
    endloop
  endfacet
  facet normal 0.995169 -0.0981781 0
    outer loop
      vertex 40.348 4.581 0
      vertex 40.502 6.142 0
      vertex 40.502 6.142 3
    endloop
  endfacet
  facet normal 0.995169 -0.0981781 0
    outer loop
      vertex 40.348 4.581 3
      vertex 40.348 4.581 0
      vertex 40.502 6.142 3
    endloop
  endfacet
  facet normal 1 0.000333143 0
    outer loop
      vertex 40.467 111.202 0
      vertex 40.467 111.202 3
      vertex 40.502 6.142 3
    endloop
  endfacet
  facet normal 1 0.000333143 0
    outer loop
      vertex 40.502 6.142 0
      vertex 40.467 111.202 0
      vertex 40.502 6.142 3
    endloop
  endfacet
  facet normal 0.995169 0.0981781 0
    outer loop
      vertex 40.313 112.763 0
      vertex 40.313 112.763 3
      vertex 40.467 111.202 3
    endloop
  endfacet
  facet normal 0.995169 0.0981781 0
    outer loop
      vertex 40.467 111.202 0
      vertex 40.313 112.763 0
      vertex 40.467 111.202 3
    endloop
  endfacet
  facet normal 0.956998 0.290096 0
    outer loop
      vertex 39.858 114.264 0
      vertex 39.858 114.264 3
      vertex 40.313 112.763 3
    endloop
  endfacet
  facet normal 0.956998 0.290096 0
    outer loop
      vertex 40.313 112.763 0
      vertex 39.858 114.264 0
      vertex 40.313 112.763 3
    endloop
  endfacet
  facet normal 0.881717 0.471779 0
    outer loop
      vertex 39.118 115.647 0
      vertex 39.118 115.647 3
      vertex 39.858 114.264 3
    endloop
  endfacet
  facet normal 0.881717 0.471779 0
    outer loop
      vertex 39.858 114.264 0
      vertex 39.118 115.647 0
      vertex 39.858 114.264 3
    endloop
  endfacet
  facet normal 0.772905 0.634522 0
    outer loop
      vertex 38.123 116.859 0
      vertex 38.123 116.859 3
      vertex 39.118 115.647 3
    endloop
  endfacet
  facet normal 0.772905 0.634522 0
    outer loop
      vertex 39.118 115.647 0
      vertex 38.123 116.859 0
      vertex 39.118 115.647 3
    endloop
  endfacet
  facet normal 0.707107 0.707107 0
    outer loop
      vertex 37.638 117.344 3
      vertex 38.123 116.859 3
      vertex 37.638 117.344 0
    endloop
  endfacet
  facet normal 0.707107 0.707107 0
    outer loop
      vertex 37.638 117.344 0
      vertex 38.123 116.859 3
      vertex 38.123 116.859 0
    endloop
  endfacet
  facet normal -0.707107 0.707107 0
    outer loop
      vertex 31.604 111.31 3
      vertex 37.638 117.344 3
      vertex 31.604 111.31 0
    endloop
  endfacet
  facet normal -0.707107 0.707107 0
    outer loop
      vertex 31.604 111.31 0
      vertex 37.638 117.344 3
      vertex 37.638 117.344 0
    endloop
  endfacet
  facet normal -0.965635 0.259902 0
    outer loop
      vertex 31.474 110.827 3
      vertex 31.604 111.31 3
      vertex 31.474 110.827 0
    endloop
  endfacet
  facet normal -0.965635 0.259902 0
    outer loop
      vertex 31.474 110.827 0
      vertex 31.604 111.31 3
      vertex 31.604 111.31 0
    endloop
  endfacet
  facet normal -0.939793 0.341743 0
    outer loop
      vertex 31.278 110.288 3
      vertex 31.474 110.827 3
      vertex 31.278 110.288 0
    endloop
  endfacet
  facet normal -0.939793 0.341743 0
    outer loop
      vertex 31.278 110.288 0
      vertex 31.474 110.827 3
      vertex 31.474 110.827 0
    endloop
  endfacet
  facet normal 0 1 0
    outer loop
      vertex 30.705 110.288 3
      vertex 31.278 110.288 3
      vertex 30.705 110.288 0
    endloop
  endfacet
  facet normal 0 1 0
    outer loop
      vertex 30.705 110.288 0
      vertex 31.278 110.288 3
      vertex 31.278 110.288 0
    endloop
  endfacet
  facet normal 0.939233 0.343282 0
    outer loop
      vertex 30.508 110.827 0
      vertex 30.508 110.827 3
      vertex 30.705 110.288 3
    endloop
  endfacet
  facet normal 0.939233 0.343282 0
    outer loop
      vertex 30.705 110.288 0
      vertex 30.508 110.827 0
      vertex 30.705 110.288 3
    endloop
  endfacet
  facet normal 0.966135 0.258036 0
    outer loop
      vertex 30.379 111.31 0
      vertex 30.379 111.31 3
      vertex 30.508 110.827 3
    endloop
  endfacet
  facet normal 0.966135 0.258036 0
    outer loop
      vertex 30.508 110.827 0
      vertex 30.379 111.31 0
      vertex 30.508 110.827 3
    endloop
  endfacet
  facet normal 0.707107 0.707107 0
    outer loop
      vertex 29.224 112.465 0
      vertex 29.224 112.465 3
      vertex 30.379 111.31 3
    endloop
  endfacet
  facet normal 0.707107 0.707107 0
    outer loop
      vertex 30.379 111.31 0
      vertex 29.224 112.465 0
      vertex 30.379 111.31 3
    endloop
  endfacet
  facet normal 0.383504 0.923539 0
    outer loop
      vertex 28.87 112.612 3
      vertex 29.224 112.465 3
      vertex 28.87 112.612 0
    endloop
  endfacet
  facet normal 0.383504 0.923539 0
    outer loop
      vertex 28.87 112.612 0
      vertex 29.224 112.465 3
      vertex 29.224 112.465 0
    endloop
  endfacet
  facet normal -0.38443 0.923154 0
    outer loop
      vertex 28.517 112.465 3
      vertex 28.87 112.612 3
      vertex 28.517 112.465 0
    endloop
  endfacet
  facet normal -0.38443 0.923154 0
    outer loop
      vertex 28.517 112.465 0
      vertex 28.87 112.612 3
      vertex 28.87 112.612 0
    endloop
  endfacet
  facet normal -0.707007 0.707207 0
    outer loop
      vertex 24.981 108.93 3
      vertex 28.517 112.465 3
      vertex 24.981 108.93 0
    endloop
  endfacet
  facet normal -0.707007 0.707207 0
    outer loop
      vertex 24.981 108.93 0
      vertex 28.517 112.465 3
      vertex 28.517 112.465 0
    endloop
  endfacet
  facet normal -0.924462 0.381275 0
    outer loop
      vertex 24.835 108.576 3
      vertex 24.981 108.93 3
      vertex 24.835 108.576 0
    endloop
  endfacet
  facet normal -0.924462 0.381275 0
    outer loop
      vertex 24.835 108.576 0
      vertex 24.981 108.93 3
      vertex 24.981 108.93 0
    endloop
  endfacet
  facet normal -0.924081 -0.382198 0
    outer loop
      vertex 24.981 108.223 0
      vertex 24.981 108.223 3
      vertex 24.835 108.576 0
    endloop
  endfacet
  facet normal -0.924081 -0.382198 0
    outer loop
      vertex 24.835 108.576 0
      vertex 24.981 108.223 3
      vertex 24.835 108.576 3
    endloop
  endfacet
  facet normal -0.707413 -0.706801 0
    outer loop
      vertex 26.136 107.067 0
      vertex 26.136 107.067 3
      vertex 24.981 108.223 0
    endloop
  endfacet
  facet normal -0.707413 -0.706801 0
    outer loop
      vertex 24.981 108.223 0
      vertex 26.136 107.067 3
      vertex 24.981 108.223 3
    endloop
  endfacet
  facet normal -0.258036 -0.966135 0
    outer loop
      vertex 26.136 107.067 0
      vertex 26.619 106.938 0
      vertex 26.619 106.938 3
    endloop
  endfacet
  facet normal -0.258036 -0.966135 0
    outer loop
      vertex 26.136 107.067 3
      vertex 26.136 107.067 0
      vertex 26.619 106.938 3
    endloop
  endfacet
  facet normal -0.341743 -0.939793 0
    outer loop
      vertex 26.619 106.938 0
      vertex 27.158 106.742 0
      vertex 27.158 106.742 3
    endloop
  endfacet
  facet normal -0.341743 -0.939793 0
    outer loop
      vertex 26.619 106.938 3
      vertex 26.619 106.938 0
      vertex 27.158 106.742 3
    endloop
  endfacet
  facet normal -1 0 0
    outer loop
      vertex 27.158 106.168 3
      vertex 27.158 106.742 3
      vertex 27.158 106.168 0
    endloop
  endfacet
  facet normal -1 0 0
    outer loop
      vertex 27.158 106.168 0
      vertex 27.158 106.742 3
      vertex 27.158 106.742 0
    endloop
  endfacet
  facet normal -0.341743 0.939793 0
    outer loop
      vertex 26.619 105.972 3
      vertex 27.158 106.168 3
      vertex 26.619 105.972 0
    endloop
  endfacet
  facet normal -0.341743 0.939793 0
    outer loop
      vertex 26.619 105.972 0
      vertex 27.158 106.168 3
      vertex 27.158 106.168 0
    endloop
  endfacet
  facet normal -0.258036 0.966135 0
    outer loop
      vertex 26.136 105.843 3
      vertex 26.619 105.972 3
      vertex 26.136 105.843 0
    endloop
  endfacet
  facet normal -0.258036 0.966135 0
    outer loop
      vertex 26.136 105.843 0
      vertex 26.619 105.972 3
      vertex 26.619 105.972 0
    endloop
  endfacet
  facet normal -0.707204 0.707009 0
    outer loop
      vertex 22.506 102.212 3
      vertex 26.136 105.843 3
      vertex 22.506 102.212 0
    endloop
  endfacet
  facet normal -0.707204 0.707009 0
    outer loop
      vertex 22.506 102.212 0
      vertex 26.136 105.843 3
      vertex 26.136 105.843 0
    endloop
  endfacet
  facet normal -0.707107 -0.707107 0
    outer loop
      vertex 22.506 102.212 0
      vertex 24.627 100.091 0
      vertex 24.627 100.091 3
    endloop
  endfacet
  facet normal -0.707107 -0.707107 0
    outer loop
      vertex 22.506 102.212 3
      vertex 22.506 102.212 0
      vertex 24.627 100.091 3
    endloop
  endfacet
  facet normal 0.707107 -0.707107 0
    outer loop
      vertex 24.627 100.091 0
      vertex 25.529 100.993 0
      vertex 25.529 100.993 3
    endloop
  endfacet
  facet normal 0.707107 -0.707107 0
    outer loop
      vertex 24.627 100.091 3
      vertex 24.627 100.091 0
      vertex 25.529 100.993 3
    endloop
  endfacet
  facet normal -0.707232 -0.706982 0
    outer loop
      vertex 28.357 98.164 0
      vertex 28.357 98.164 3
      vertex 25.529 100.993 0
    endloop
  endfacet
  facet normal -0.707232 -0.706982 0
    outer loop
      vertex 25.529 100.993 0
      vertex 28.357 98.164 3
      vertex 25.529 100.993 3
    endloop
  endfacet
  facet normal -0.707107 0.707107 0
    outer loop
      vertex 27.456 97.263 3
      vertex 28.357 98.164 3
      vertex 27.456 97.263 0
    endloop
  endfacet
  facet normal -0.707107 0.707107 0
    outer loop
      vertex 27.456 97.263 0
      vertex 28.357 98.164 3
      vertex 28.357 98.164 0
    endloop
  endfacet
  facet normal -0.707273 -0.70694 0
    outer loop
      vertex 29.577 95.141 0
      vertex 29.577 95.141 3
      vertex 27.456 97.263 0
    endloop
  endfacet
  facet normal -0.707273 -0.70694 0
    outer loop
      vertex 27.456 97.263 0
      vertex 29.577 95.141 3
      vertex 27.456 97.263 3
    endloop
  endfacet
  facet normal -0.70695 0.707263 0
    outer loop
      vertex 27.314 92.879 3
      vertex 29.577 95.141 3
      vertex 27.314 92.879 0
    endloop
  endfacet
  facet normal -0.70695 0.707263 0
    outer loop
      vertex 27.314 92.879 0
      vertex 29.577 95.141 3
      vertex 29.577 95.141 0
    endloop
  endfacet
  facet normal 0.707107 0.707107 0
    outer loop
      vertex 25.193 95 0
      vertex 25.193 95 3
      vertex 27.314 92.879 3
    endloop
  endfacet
  facet normal 0.707107 0.707107 0
    outer loop
      vertex 27.314 92.879 0
      vertex 25.193 95 0
      vertex 27.314 92.879 3
    endloop
  endfacet
  facet normal -0.707499 0.706714 0
    outer loop
      vertex 24.292 94.098 3
      vertex 25.193 95 3
      vertex 24.292 94.098 0
    endloop
  endfacet
  facet normal -0.707499 0.706714 0
    outer loop
      vertex 24.292 94.098 0
      vertex 25.193 95 3
      vertex 25.193 95 0
    endloop
  endfacet
  facet normal 0.707107 0.707107 0
    outer loop
      vertex 21.463 96.927 3
      vertex 24.292 94.098 3
      vertex 21.463 96.927 0
    endloop
  endfacet
  facet normal 0.707107 0.707107 0
    outer loop
      vertex 21.463 96.927 0
      vertex 24.292 94.098 3
      vertex 24.292 94.098 0
    endloop
  endfacet
  facet normal 0.706714 -0.707499 0
    outer loop
      vertex 21.463 96.927 0
      vertex 22.365 97.828 0
      vertex 22.365 97.828 3
    endloop
  endfacet
  facet normal 0.706714 -0.707499 0
    outer loop
      vertex 21.463 96.927 3
      vertex 21.463 96.927 0
      vertex 22.365 97.828 3
    endloop
  endfacet
  facet normal 0.707107 0.707107 0
    outer loop
      vertex 20.243 99.95 3
      vertex 22.365 97.828 3
      vertex 20.243 99.95 0
    endloop
  endfacet
  facet normal 0.707107 0.707107 0
    outer loop
      vertex 20.243 99.95 0
      vertex 22.365 97.828 3
      vertex 22.365 97.828 0
    endloop
  endfacet
  facet normal -0.707204 0.707009 0
    outer loop
      vertex 16.613 96.319 3
      vertex 20.243 99.95 3
      vertex 16.613 96.319 0
    endloop
  endfacet
  facet normal -0.707204 0.707009 0
    outer loop
      vertex 16.613 96.319 0
      vertex 20.243 99.95 3
      vertex 20.243 99.95 0
    endloop
  endfacet
  facet normal -0.966135 0.258036 0
    outer loop
      vertex 16.484 95.836 3
      vertex 16.613 96.319 3
      vertex 16.484 95.836 0
    endloop
  endfacet
  facet normal -0.966135 0.258036 0
    outer loop
      vertex 16.484 95.836 0
      vertex 16.613 96.319 3
      vertex 16.613 96.319 0
    endloop
  endfacet
  facet normal -0.939793 0.341743 0
    outer loop
      vertex 16.288 95.297 3
      vertex 16.484 95.836 3
      vertex 16.288 95.297 0
    endloop
  endfacet
  facet normal -0.939793 0.341743 0
    outer loop
      vertex 16.288 95.297 0
      vertex 16.484 95.836 3
      vertex 16.484 95.836 0
    endloop
  endfacet
  facet normal 0 1 0
    outer loop
      vertex 15.714 95.297 3
      vertex 16.288 95.297 3
      vertex 15.714 95.297 0
    endloop
  endfacet
  facet normal 0 1 0
    outer loop
      vertex 15.714 95.297 0
      vertex 16.288 95.297 3
      vertex 16.288 95.297 0
    endloop
  endfacet
  facet normal 0.939793 0.341743 0
    outer loop
      vertex 15.518 95.836 0
      vertex 15.518 95.836 3
      vertex 15.714 95.297 3
    endloop
  endfacet
  facet normal 0.939793 0.341743 0
    outer loop
      vertex 15.714 95.297 0
      vertex 15.518 95.836 0
      vertex 15.714 95.297 3
    endloop
  endfacet
  facet normal 0.965635 0.259902 0
    outer loop
      vertex 15.388 96.319 0
      vertex 15.388 96.319 3
      vertex 15.518 95.836 3
    endloop
  endfacet
  facet normal 0.965635 0.259902 0
    outer loop
      vertex 15.518 95.836 0
      vertex 15.388 96.319 0
      vertex 15.518 95.836 3
    endloop
  endfacet
  facet normal 0.707413 0.706801 0
    outer loop
      vertex 14.233 97.475 0
      vertex 14.233 97.475 3
      vertex 15.388 96.319 3
    endloop
  endfacet
  facet normal 0.707413 0.706801 0
    outer loop
      vertex 15.388 96.319 0
      vertex 14.233 97.475 0
      vertex 15.388 96.319 3
    endloop
  endfacet
  facet normal 0.381275 0.924462 0
    outer loop
      vertex 13.879 97.621 3
      vertex 14.233 97.475 3
      vertex 13.879 97.621 0
    endloop
  endfacet
  facet normal 0.381275 0.924462 0
    outer loop
      vertex 13.879 97.621 0
      vertex 14.233 97.475 3
      vertex 14.233 97.475 0
    endloop
  endfacet
  facet normal -0.382198 0.924081 0
    outer loop
      vertex 13.526 97.475 3
      vertex 13.879 97.621 3
      vertex 13.526 97.475 0
    endloop
  endfacet
  facet normal -0.382198 0.924081 0
    outer loop
      vertex 13.526 97.475 0
      vertex 13.879 97.621 3
      vertex 13.879 97.621 0
    endloop
  endfacet
  facet normal -0.707107 0.707107 0
    outer loop
      vertex 9.99 93.939 3
      vertex 13.526 97.475 3
      vertex 9.99 93.939 0
    endloop
  endfacet
  facet normal -0.707107 0.707107 0
    outer loop
      vertex 9.99 93.939 0
      vertex 13.526 97.475 3
      vertex 13.526 97.475 0
    endloop
  endfacet
  facet normal -0.924081 0.382198 0
    outer loop
      vertex 9.844 93.586 3
      vertex 9.99 93.939 3
      vertex 9.844 93.586 0
    endloop
  endfacet
  facet normal -0.924081 0.382198 0
    outer loop
      vertex 9.844 93.586 0
      vertex 9.99 93.939 3
      vertex 9.99 93.939 0
    endloop
  endfacet
  facet normal -0.924462 -0.381275 0
    outer loop
      vertex 9.99 93.232 0
      vertex 9.99 93.232 3
      vertex 9.844 93.586 0
    endloop
  endfacet
  facet normal -0.924462 -0.381275 0
    outer loop
      vertex 9.844 93.586 0
      vertex 9.99 93.232 3
      vertex 9.844 93.586 3
    endloop
  endfacet
  facet normal -0.706801 -0.707413 0
    outer loop
      vertex 9.99 93.232 0
      vertex 11.146 92.077 0
      vertex 11.146 92.077 3
    endloop
  endfacet
  facet normal -0.706801 -0.707413 0
    outer loop
      vertex 9.99 93.232 3
      vertex 9.99 93.232 0
      vertex 11.146 92.077 3
    endloop
  endfacet
  facet normal -0.259902 -0.965635 0
    outer loop
      vertex 11.146 92.077 0
      vertex 11.629 91.947 0
      vertex 11.629 91.947 3
    endloop
  endfacet
  facet normal -0.259902 -0.965635 0
    outer loop
      vertex 11.146 92.077 3
      vertex 11.146 92.077 0
      vertex 11.629 91.947 3
    endloop
  endfacet
  facet normal -0.341743 -0.939793 0
    outer loop
      vertex 11.629 91.947 0
      vertex 12.168 91.751 0
      vertex 12.168 91.751 3
    endloop
  endfacet
  facet normal -0.341743 -0.939793 0
    outer loop
      vertex 11.629 91.947 3
      vertex 11.629 91.947 0
      vertex 12.168 91.751 3
    endloop
  endfacet
  facet normal -1 0 0
    outer loop
      vertex 12.168 91.178 3
      vertex 12.168 91.751 3
      vertex 12.168 91.178 0
    endloop
  endfacet
  facet normal -1 0 0
    outer loop
      vertex 12.168 91.178 0
      vertex 12.168 91.751 3
      vertex 12.168 91.751 0
    endloop
  endfacet
endsolid OpenSCAD_Model
