solid OpenSCAD_Model
  facet normal 0 -1 0
    outer loop
      vertex 11.525 0 0
      vertex 14.618 0 0
      vertex 14.618 0 3
    endloop
  endfacet
  facet normal 0 -1 0
    outer loop
      vertex 11.525 0 3
      vertex 11.525 0 0
      vertex 14.618 0 3
    endloop
  endfacet
  facet normal 0 0 -1
    outer loop
      vertex 0 31.003 0
      vertex 11.525 31 0
      vertex 0 21.535 0
    endloop
  endfacet
  facet normal 0 0 -1
    outer loop
      vertex 0 21.535 0
      vertex 11.525 31 0
      vertex 11.525 21.218 0
    endloop
  endfacet
  facet normal 0 0 -1
    outer loop
      vertex 0 21.535 0
      vertex 11.525 21.218 0
      vertex 11.275 20.785 0
    endloop
  endfacet
  facet normal 0 0 -1
    outer loop
      vertex 0 21.535 0
      vertex 11.275 20.785 0
      vertex 11.032 20.265 0
    endloop
  endfacet
  facet normal 0 0 -1
    outer loop
      vertex 11.032 20.265 0
      vertex 11.438 19.859 0
      vertex 0 21.535 0
    endloop
  endfacet
  facet normal 0 0 -1
    outer loop
      vertex 11.958 20.102 0
      vertex 12.391 20.352 0
      vertex 13.959 20.351 0
    endloop
  endfacet
  facet normal 0 0 -1
    outer loop
      vertex 11.958 20.102 0
      vertex 13.959 20.351 0
      vertex 11.438 19.859 0
    endloop
  endfacet
  facet normal 0 0 -1
    outer loop
      vertex 11.438 19.859 0
      vertex 13.959 20.351 0
      vertex 14.392 20.101 0
    endloop
  endfacet
  facet normal 0 0 -1
    outer loop
      vertex 14.392 20.101 0
      vertex 14.911 19.859 0
      vertex 11.438 19.859 0
    endloop
  endfacet
  facet normal 0 0 -1
    outer loop
      vertex 77.75 33.911 0
      vertex 14.911 19.859 0
      vertex 77.508 34.431 0
    endloop
  endfacet
  facet normal 0 0 -1
    outer loop
      vertex 14.825 31 0
      vertex 25.484 31 0
      vertex 15.317 20.264 0
    endloop
  endfacet
  facet normal 0 0 -1
    outer loop
      vertex 15.317 20.264 0
      vertex 25.484 31 0
      vertex 25.917 30.75 0
    endloop
  endfacet
  facet normal 0 0 -1
    outer loop
      vertex 15.317 20.264 0
      vertex 25.917 30.75 0
      vertex 14.911 19.859 0
    endloop
  endfacet
  facet normal 0 0 -1
    outer loop
      vertex 14.911 19.859 0
      vertex 25.917 30.75 0
      vertex 26.437 30.507 0
    endloop
  endfacet
  facet normal 0 0 -1
    outer loop
      vertex 26.601 31.433 0
      vertex 26.351 31.866 0
      vertex 26.351 34.357 0
    endloop
  endfacet
  facet normal 0 0 -1
    outer loop
      vertex 26.601 31.433 0
      vertex 26.351 34.357 0
      vertex 26.843 30.913 0
    endloop
  endfacet
  facet normal 0 0 -1
    outer loop
      vertex 26.843 30.913 0
      vertex 26.351 34.357 0
      vertex 43.675 70.268 0
    endloop
  endfacet
  facet normal 0 0 -1
    outer loop
      vertex 26.843 30.913 0
      vertex 43.675 70.268 0
      vertex 44.844 72.138 0
    endloop
  endfacet
  facet normal 0 0 -1
    outer loop
      vertex 26.843 30.913 0
      vertex 44.844 72.138 0
      vertex 46.336 73.762 0
    endloop
  endfacet
  facet normal 0 0 -1
    outer loop
      vertex 26.843 30.913 0
      vertex 46.336 73.762 0
      vertex 48.099 75.087 0
    endloop
  endfacet
  facet normal 0 0 -1
    outer loop
      vertex 26.843 30.913 0
      vertex 48.099 75.087 0
      vertex 50.075 76.066 0
    endloop
  endfacet
  facet normal 0 0 -1
    outer loop
      vertex 26.843 30.913 0
      vertex 50.075 76.066 0
      vertex 52.197 76.667 0
    endloop
  endfacet
  facet normal 0 0 -1
    outer loop
      vertex 26.843 30.913 0
      vertex 52.197 76.667 0
      vertex 54.393 76.87 0
    endloop
  endfacet
  facet normal 0 0 -1
    outer loop
      vertex 60.214 68.118 0
      vertex 54.393 76.87 0
      vertex 76.001 76.869 0
    endloop
  endfacet
  facet normal 0 0 -1
    outer loop
      vertex 63.3 63.499 0
      vertex 76.001 76.869 0
      vertex 78.342 76.639 0
    endloop
  endfacet
  facet normal 0 0 -1
    outer loop
      vertex 14.911 19.859 0
      vertex 80.593 75.956 0
      vertex 82.667 74.847 0
    endloop
  endfacet
  facet normal 0 0 -1
    outer loop
      vertex 75.782 67.466 0
      vertex 82.667 74.847 0
      vertex 84.486 73.355 0
    endloop
  endfacet
  facet normal 0 0 -1
    outer loop
      vertex 77.572 66.787 0
      vertex 84.486 73.355 0
      vertex 85.978 71.536 0
    endloop
  endfacet
  facet normal 0 0 -1
    outer loop
      vertex 78.842 65.354 0
      vertex 85.978 71.536 0
      vertex 87.087 69.461 0
    endloop
  endfacet
  facet normal 0 0 -1
    outer loop
      vertex 79.3 63.495 0
      vertex 87.087 69.461 0
      vertex 87.77 67.21 0
    endloop
  endfacet
  facet normal 0 0 -1
    outer loop
      vertex 77.572 60.203 0
      vertex 87.77 67.21 0
      vertex 88.001 64.869 0
    endloop
  endfacet
  facet normal 0 0 -1
    outer loop
      vertex 78.867 34.344 0
      vertex 88.001 64.869 0
      vertex 88 34.344 0
    endloop
  endfacet
  facet normal 0 0 -1
    outer loop
      vertex 78.434 34.594 0
      vertex 88.001 64.869 0
      vertex 78.867 34.344 0
    endloop
  endfacet
  facet normal 0 0 -1
    outer loop
      vertex 77.914 34.837 0
      vertex 88.001 64.869 0
      vertex 78.434 34.594 0
    endloop
  endfacet
  facet normal 0 0 -1
    outer loop
      vertex 52.975 34.08 0
      vertex 88.001 64.869 0
      vertex 77.914 34.837 0
    endloop
  endfacet
  facet normal 0 0 -1
    outer loop
      vertex 14.911 19.859 0
      vertex 77.914 34.837 0
      vertex 77.508 34.431 0
    endloop
  endfacet
  facet normal 0 0 -1
    outer loop
      vertex 78 31.91 0
      vertex 14.911 19.859 0
      vertex 78 33.478 0
    endloop
  endfacet
  facet normal 0 0 -1
    outer loop
      vertex 14.911 19.859 0
      vertex 77.75 33.911 0
      vertex 78 33.478 0
    endloop
  endfacet
  facet normal 0 0 -1
    outer loop
      vertex 88 31.044 0
      vertex 78.433 30.794 0
      vertex 78.866 31.044 0
    endloop
  endfacet
  facet normal 0 0 -1
    outer loop
      vertex 88 31.044 0
      vertex 77.913 30.552 0
      vertex 78.433 30.794 0
    endloop
  endfacet
  facet normal 0 0 -1
    outer loop
      vertex 14.911 19.859 0
      vertex 78 31.91 0
      vertex 77.75 31.477 0
    endloop
  endfacet
  facet normal 0 0 -1
    outer loop
      vertex 77.75 31.477 0
      vertex 77.507 30.958 0
      vertex 14.911 19.859 0
    endloop
  endfacet
  facet normal 0 0 -1
    outer loop
      vertex 77.507 30.958 0
      vertex 77.913 30.552 0
      vertex 14.911 19.859 0
    endloop
  endfacet
  facet normal 0 0 -1
    outer loop
      vertex 11.575 10.35 0
      vertex 11.438 19.859 0
      vertex 12.375 11.736 0
    endloop
  endfacet
  facet normal 0 0 -1
    outer loop
      vertex 77.913 30.552 0
      vertex 88 31.044 0
      vertex 14.911 19.859 0
    endloop
  endfacet
  facet normal 0 0 -1
    outer loop
      vertex 88 31.044 0
      vertex 88 27.808 0
      vertex 14.911 19.859 0
    endloop
  endfacet
  facet normal 0 0 -1
    outer loop
      vertex 14.911 19.859 0
      vertex 88 27.808 0
      vertex 87.8 25.625 0
    endloop
  endfacet
  facet normal 0 0 -1
    outer loop
      vertex 14.911 19.859 0
      vertex 87.8 25.625 0
      vertex 87.206 23.515 0
    endloop
  endfacet
  facet normal 0 0 -1
    outer loop
      vertex 14.911 19.859 0
      vertex 87.206 23.515 0
      vertex 86.238 21.548 0
    endloop
  endfacet
  facet normal 0 0 -1
    outer loop
      vertex 14.911 19.859 0
      vertex 86.238 21.548 0
      vertex 84.929 19.79 0
    endloop
  endfacet
  facet normal 0 0 -1
    outer loop
      vertex 14.911 19.859 0
      vertex 84.929 19.79 0
      vertex 11.438 19.859 0
    endloop
  endfacet
  facet normal 0 0 -1
    outer loop
      vertex 11.438 19.859 0
      vertex 84.929 19.79 0
      vertex 83.321 18.3 0
    endloop
  endfacet
  facet normal 0 0 -1
    outer loop
      vertex 11.438 19.859 0
      vertex 83.321 18.3 0
      vertex 81.47 17.127 0
    endloop
  endfacet
  facet normal 0 0 -1
    outer loop
      vertex 11.438 19.859 0
      vertex 81.47 17.127 0
      vertex 79.436 16.31 0
    endloop
  endfacet
  facet normal 0 0 -1
    outer loop
      vertex 13.975 8.964 0
      vertex 79.436 16.31 0
      vertex 14.618 0 0
    endloop
  endfacet
  facet normal 0 0 -1
    outer loop
      vertex 11.575 10.35 0
      vertex 14.618 0 0
      vertex 0 21.535 0
    endloop
  endfacet
  facet normal 0 0 -1
    outer loop
      vertex 0 21.535 0
      vertex 14.618 0 0
      vertex 11.525 0 0
    endloop
  endfacet
  facet normal 0 0 -1
    outer loop
      vertex 0 21.535 0
      vertex 11.525 0 0
      vertex 1.127 16.456 0
    endloop
  endfacet
  facet normal 0 0 -1
    outer loop
      vertex 0 21.535 0
      vertex 1.127 16.456 0
      vertex 0.505 18.088 0
    endloop
  endfacet
  facet normal 0 0 -1
    outer loop
      vertex 0 21.535 0
      vertex 0.505 18.088 0
      vertex 0.127 19.793 0
    endloop
  endfacet
  facet normal 0 0 -1
    outer loop
      vertex 12.375 8.964 0
      vertex 14.618 0 0
      vertex 11.575 10.35 0
    endloop
  endfacet
  facet normal 0 0 -1
    outer loop
      vertex 11.438 19.859 0
      vertex 11.575 10.35 0
      vertex 0 21.535 0
    endloop
  endfacet
  facet normal 0 0 -1
    outer loop
      vertex 58.3 58.499 0
      vertex 26.843 30.913 0
      vertex 56.387 58.88 0
    endloop
  endfacet
  facet normal 0 0 -1
    outer loop
      vertex 13.975 8.964 0
      vertex 14.618 0 0
      vertex 12.375 8.964 0
    endloop
  endfacet
  facet normal 0 0 -1
    outer loop
      vertex 14.775 10.35 0
      vertex 79.436 16.31 0
      vertex 13.975 8.964 0
    endloop
  endfacet
  facet normal 0 0 -1
    outer loop
      vertex 12.375 11.736 0
      vertex 11.438 19.859 0
      vertex 13.975 11.736 0
    endloop
  endfacet
  facet normal 0 0 -1
    outer loop
      vertex 11.438 19.859 0
      vertex 79.436 16.31 0
      vertex 14.775 10.35 0
    endloop
  endfacet
  facet normal 0 0 -1
    outer loop
      vertex 11.438 19.859 0
      vertex 14.775 10.35 0
      vertex 13.975 11.736 0
    endloop
  endfacet
  facet normal 0 0 -1
    outer loop
      vertex 53.775 32.695 0
      vertex 77.914 34.837 0
      vertex 52.975 31.309 0
    endloop
  endfacet
  facet normal 0 0 -1
    outer loop
      vertex 58.3 58.499 0
      vertex 14.911 19.859 0
      vertex 26.437 30.507 0
    endloop
  endfacet
  facet normal 0 0 -1
    outer loop
      vertex 14.911 19.859 0
      vertex 50.575 32.695 0
      vertex 51.375 31.309 0
    endloop
  endfacet
  facet normal 0 0 -1
    outer loop
      vertex 14.911 19.859 0
      vertex 51.375 31.309 0
      vertex 52.975 31.309 0
    endloop
  endfacet
  facet normal 0 0 -1
    outer loop
      vertex 14.911 19.859 0
      vertex 52.975 31.309 0
      vertex 77.914 34.837 0
    endloop
  endfacet
  facet normal 0 0 -1
    outer loop
      vertex 52.975 34.08 0
      vertex 77.914 34.837 0
      vertex 53.775 32.695 0
    endloop
  endfacet
  facet normal 0 0 -1
    outer loop
      vertex 58.3 58.499 0
      vertex 26.437 30.507 0
      vertex 26.843 30.913 0
    endloop
  endfacet
  facet normal 0 0 -1
    outer loop
      vertex 51.375 34.08 0
      vertex 88.001 64.869 0
      vertex 52.975 34.08 0
    endloop
  endfacet
  facet normal 0 0 -1
    outer loop
      vertex 14.911 19.859 0
      vertex 88.001 64.869 0
      vertex 51.375 34.08 0
    endloop
  endfacet
  facet normal 0 0 -1
    outer loop
      vertex 14.911 19.859 0
      vertex 51.375 34.08 0
      vertex 50.575 32.695 0
    endloop
  endfacet
  facet normal 0 0 -1
    outer loop
      vertex 26.843 30.913 0
      vertex 54.393 76.87 0
      vertex 53.3 63.499 0
    endloop
  endfacet
  facet normal 0 0 -1
    outer loop
      vertex 71.416 64.452 0
      vertex 14.911 19.859 0
      vertex 72.306 66.147 0
    endloop
  endfacet
  facet normal 0 0 -1
    outer loop
      vertex 26.843 30.913 0
      vertex 53.3 63.499 0
      vertex 53.681 61.586 0
    endloop
  endfacet
  facet normal 0 0 -1
    outer loop
      vertex 26.843 30.913 0
      vertex 53.681 61.586 0
      vertex 54.765 59.964 0
    endloop
  endfacet
  facet normal 0 0 -1
    outer loop
      vertex 26.843 30.913 0
      vertex 54.765 59.964 0
      vertex 56.387 58.88 0
    endloop
  endfacet
  facet normal 0 0 -1
    outer loop
      vertex 62.92 61.586 0
      vertex 80.593 75.956 0
      vertex 61.836 59.964 0
    endloop
  endfacet
  facet normal 0 0 -1
    outer loop
      vertex 14.911 19.859 0
      vertex 58.3 58.499 0
      vertex 60.214 58.88 0
    endloop
  endfacet
  facet normal 0 0 -1
    outer loop
      vertex 63.3 63.499 0
      vertex 80.593 75.956 0
      vertex 62.92 61.586 0
    endloop
  endfacet
  facet normal 0 0 -1
    outer loop
      vertex 14.911 19.859 0
      vertex 60.214 58.88 0
      vertex 61.836 59.964 0
    endloop
  endfacet
  facet normal 0 0 -1
    outer loop
      vertex 14.911 19.859 0
      vertex 61.836 59.964 0
      vertex 80.593 75.956 0
    endloop
  endfacet
  facet normal 0 0 -1
    outer loop
      vertex 63.3 63.499 0
      vertex 78.342 76.639 0
      vertex 80.593 75.956 0
    endloop
  endfacet
  facet normal 0 0 -1
    outer loop
      vertex 61.836 67.035 0
      vertex 76.001 76.869 0
      vertex 62.92 65.413 0
    endloop
  endfacet
  facet normal 0 0 -1
    outer loop
      vertex 60.214 68.118 0
      vertex 76.001 76.869 0
      vertex 61.836 67.035 0
    endloop
  endfacet
  facet normal 0 0 -1
    outer loop
      vertex 58.3 68.499 0
      vertex 54.393 76.87 0
      vertex 60.214 68.118 0
    endloop
  endfacet
  facet normal 0 0 -1
    outer loop
      vertex 71.416 62.538 0
      vertex 14.911 19.859 0
      vertex 71.416 64.452 0
    endloop
  endfacet
  facet normal 0 0 -1
    outer loop
      vertex 56.387 68.118 0
      vertex 54.393 76.87 0
      vertex 58.3 68.499 0
    endloop
  endfacet
  facet normal 0 0 -1
    outer loop
      vertex 54.765 67.035 0
      vertex 54.393 76.87 0
      vertex 56.387 68.118 0
    endloop
  endfacet
  facet normal 0 0 -1
    outer loop
      vertex 53.681 65.413 0
      vertex 54.393 76.87 0
      vertex 54.765 67.035 0
    endloop
  endfacet
  facet normal 0 0 -1
    outer loop
      vertex 53.3 63.499 0
      vertex 54.393 76.87 0
      vertex 53.681 65.413 0
    endloop
  endfacet
  facet normal 0 0 -1
    outer loop
      vertex 72.306 60.843 0
      vertex 14.911 19.859 0
      vertex 71.416 62.538 0
    endloop
  endfacet
  facet normal 0 0 -1
    outer loop
      vertex 73.882 59.755 0
      vertex 14.911 19.859 0
      vertex 72.306 60.843 0
    endloop
  endfacet
  facet normal 0 0 -1
    outer loop
      vertex 77.572 60.203 0
      vertex 14.911 19.859 0
      vertex 75.782 59.524 0
    endloop
  endfacet
  facet normal 0 0 -1
    outer loop
      vertex 14.911 19.859 0
      vertex 73.882 59.755 0
      vertex 75.782 59.524 0
    endloop
  endfacet
  facet normal 0 0 -1
    outer loop
      vertex 78.842 61.636 0
      vertex 87.77 67.21 0
      vertex 77.572 60.203 0
    endloop
  endfacet
  facet normal 0 0 -1
    outer loop
      vertex 14.911 19.859 0
      vertex 77.572 60.203 0
      vertex 88.001 64.869 0
    endloop
  endfacet
  facet normal 0 0 -1
    outer loop
      vertex 79.3 63.495 0
      vertex 87.77 67.21 0
      vertex 78.842 61.636 0
    endloop
  endfacet
  facet normal 0 0 -1
    outer loop
      vertex 78.842 65.354 0
      vertex 87.087 69.461 0
      vertex 79.3 63.495 0
    endloop
  endfacet
  facet normal 0 0 -1
    outer loop
      vertex 77.572 66.787 0
      vertex 85.978 71.536 0
      vertex 78.842 65.354 0
    endloop
  endfacet
  facet normal 0 0 -1
    outer loop
      vertex 75.782 67.466 0
      vertex 84.486 73.355 0
      vertex 77.572 66.787 0
    endloop
  endfacet
  facet normal 0 0 -1
    outer loop
      vertex 73.882 67.235 0
      vertex 82.667 74.847 0
      vertex 75.782 67.466 0
    endloop
  endfacet
  facet normal 0 0 -1
    outer loop
      vertex 72.306 66.147 0
      vertex 82.667 74.847 0
      vertex 73.882 67.235 0
    endloop
  endfacet
  facet normal 0 0 -1
    outer loop
      vertex 14.911 19.859 0
      vertex 82.667 74.847 0
      vertex 72.306 66.147 0
    endloop
  endfacet
  facet normal 0 0 -1
    outer loop
      vertex 14.825 31 0
      vertex 15.317 20.264 0
      vertex 15.075 20.784 0
    endloop
  endfacet
  facet normal 0 0 -1
    outer loop
      vertex 14.825 31 0
      vertex 15.075 20.784 0
      vertex 14.825 21.217 0
    endloop
  endfacet
  facet normal 0 0 -1
    outer loop
      vertex 62.92 65.413 0
      vertex 76.001 76.869 0
      vertex 63.3 63.499 0
    endloop
  endfacet
  facet normal -0.845379 -0.534167 0
    outer loop
      vertex 11.525 0 0
      vertex 11.525 0 3
      vertex 1.127 16.456 0
    endloop
  endfacet
  facet normal -0.845379 -0.534167 0
    outer loop
      vertex 1.127 16.456 0
      vertex 11.525 0 3
      vertex 1.127 16.456 3
    endloop
  endfacet
  facet normal 0 0 1
    outer loop
      vertex 0 21.535 3
      vertex 0.127 19.793 3
      vertex 0.505 18.088 3
    endloop
  endfacet
  facet normal 0 0 1
    outer loop
      vertex 11.525 0 3
      vertex 0 21.535 3
      vertex 1.127 16.456 3
    endloop
  endfacet
  facet normal 0 0 1
    outer loop
      vertex 1.127 16.456 3
      vertex 0 21.535 3
      vertex 0.505 18.088 3
    endloop
  endfacet
  facet normal 0 0 1
    outer loop
      vertex 14.618 0 3
      vertex 0 21.535 3
      vertex 11.525 0 3
    endloop
  endfacet
  facet normal 0 0 1
    outer loop
      vertex 11.575 10.35 3
      vertex 0 21.535 3
      vertex 14.618 0 3
    endloop
  endfacet
  facet normal 0 0 1
    outer loop
      vertex 12.391 20.352 3
      vertex 14.911 19.859 3
      vertex 14.392 20.101 3
    endloop
  endfacet
  facet normal 0 0 1
    outer loop
      vertex 12.391 20.352 3
      vertex 11.958 20.102 3
      vertex 14.911 19.859 3
    endloop
  endfacet
  facet normal 0 0 1
    outer loop
      vertex 14.825 21.217 3
      vertex 15.075 20.784 3
      vertex 83.321 18.3 3
    endloop
  endfacet
  facet normal 0 0 1
    outer loop
      vertex 15.075 20.784 3
      vertex 15.317 20.264 3
      vertex 79.436 16.31 3
    endloop
  endfacet
  facet normal 0 0 1
    outer loop
      vertex 50.575 32.695 3
      vertex 51.375 34.08 3
      vertex 26.351 31.866 3
    endloop
  endfacet
  facet normal 0 0 1
    outer loop
      vertex 78.866 31.044 3
      vertex 78.433 30.794 3
      vertex 88 31.044 3
    endloop
  endfacet
  facet normal 0 0 1
    outer loop
      vertex 78.434 34.594 3
      vertex 88 34.344 3
      vertex 77.914 34.837 3
    endloop
  endfacet
  facet normal 0 0 1
    outer loop
      vertex 78.433 30.794 3
      vertex 77.913 30.552 3
      vertex 88 31.044 3
    endloop
  endfacet
  facet normal 0 0 1
    outer loop
      vertex 78.867 34.344 3
      vertex 88 34.344 3
      vertex 78.434 34.594 3
    endloop
  endfacet
  facet normal 0 0 1
    outer loop
      vertex 44.844 72.138 3
      vertex 43.675 70.268 3
      vertex 46.336 73.762 3
    endloop
  endfacet
  facet normal 0 0 1
    outer loop
      vertex 88.001 64.869 3
      vertex 77.914 34.837 3
      vertex 88 34.344 3
    endloop
  endfacet
  facet normal 0 0 1
    outer loop
      vertex 52.975 31.309 3
      vertex 77.75 33.911 3
      vertex 77.508 34.431 3
    endloop
  endfacet
  facet normal 0 0 1
    outer loop
      vertex 26.437 30.507 3
      vertex 78 31.91 3
      vertex 52.975 31.309 3
    endloop
  endfacet
  facet normal 0 0 1
    outer loop
      vertex 26.437 30.507 3
      vertex 77.913 30.552 3
      vertex 77.507 30.958 3
    endloop
  endfacet
  facet normal 0 0 1
    outer loop
      vertex 14.825 31 3
      vertex 87.8 25.625 3
      vertex 88 27.808 3
    endloop
  endfacet
  facet normal 0 0 1
    outer loop
      vertex 46.336 73.762 3
      vertex 43.675 70.268 3
      vertex 48.099 75.087 3
    endloop
  endfacet
  facet normal 0 0 1
    outer loop
      vertex 88.001 64.869 3
      vertex 26.351 34.357 3
      vertex 77.914 34.837 3
    endloop
  endfacet
  facet normal 0 0 1
    outer loop
      vertex 52.975 34.08 3
      vertex 53.775 32.695 3
      vertex 77.914 34.837 3
    endloop
  endfacet
  facet normal 0 0 1
    outer loop
      vertex 14.825 31 3
      vertex 25.917 30.75 3
      vertex 25.484 31 3
    endloop
  endfacet
  facet normal 0 0 1
    outer loop
      vertex 61.836 67.035 3
      vertex 62.92 65.413 3
      vertex 78.342 76.639 3
    endloop
  endfacet
  facet normal 0 0 1
    outer loop
      vertex 14.825 31 3
      vertex 26.437 30.507 3
      vertex 25.917 30.75 3
    endloop
  endfacet
  facet normal 0 0 1
    outer loop
      vertex 56.387 68.118 3
      vertex 58.3 68.499 3
      vertex 76.001 76.869 3
    endloop
  endfacet
  facet normal 0 0 1
    outer loop
      vertex 50.575 32.695 3
      vertex 26.601 31.433 3
      vertex 26.843 30.913 3
    endloop
  endfacet
  facet normal 0 0 1
    outer loop
      vertex 14.825 31 3
      vertex 87.206 23.515 3
      vertex 87.8 25.625 3
    endloop
  endfacet
  facet normal 0 0 1
    outer loop
      vertex 84.929 19.79 3
      vertex 14.825 21.217 3
      vertex 83.321 18.3 3
    endloop
  endfacet
  facet normal 0 0 1
    outer loop
      vertex 83.321 18.3 3
      vertex 15.075 20.784 3
      vertex 81.47 17.127 3
    endloop
  endfacet
  facet normal 0 0 1
    outer loop
      vertex 79.436 16.31 3
      vertex 15.317 20.264 3
      vertex 14.618 0 3
    endloop
  endfacet
  facet normal 0 0 1
    outer loop
      vertex 11.032 20.265 3
      vertex 11.275 20.785 3
      vertex 0 21.535 3
    endloop
  endfacet
  facet normal 0 0 1
    outer loop
      vertex 11.275 20.785 3
      vertex 11.525 21.218 3
      vertex 0 21.535 3
    endloop
  endfacet
  facet normal 0 0 1
    outer loop
      vertex 13.959 20.351 3
      vertex 12.391 20.352 3
      vertex 14.392 20.101 3
    endloop
  endfacet
  facet normal 0 0 1
    outer loop
      vertex 11.525 21.218 3
      vertex 11.525 31 3
      vertex 0 21.535 3
    endloop
  endfacet
  facet normal 0 0 1
    outer loop
      vertex 13.975 11.736 3
      vertex 14.775 10.35 3
      vertex 14.911 19.859 3
    endloop
  endfacet
  facet normal 0 0 1
    outer loop
      vertex 51.375 31.309 3
      vertex 50.575 32.695 3
      vertex 26.437 30.507 3
    endloop
  endfacet
  facet normal 0 0 1
    outer loop
      vertex 11.438 19.859 3
      vertex 11.032 20.265 3
      vertex 0 21.535 3
    endloop
  endfacet
  facet normal 0 0 1
    outer loop
      vertex 12.375 11.736 3
      vertex 13.975 11.736 3
      vertex 11.958 20.102 3
    endloop
  endfacet
  facet normal 0 0 1
    outer loop
      vertex 15.075 20.784 3
      vertex 79.436 16.31 3
      vertex 81.47 17.127 3
    endloop
  endfacet
  facet normal 0 0 1
    outer loop
      vertex 11.525 31 3
      vertex 0 31.003 3
      vertex 0 21.535 3
    endloop
  endfacet
  facet normal 0 0 1
    outer loop
      vertex 12.375 8.964 3
      vertex 11.575 10.35 3
      vertex 14.618 0 3
    endloop
  endfacet
  facet normal 0 0 1
    outer loop
      vertex 11.438 19.859 3
      vertex 0 21.535 3
      vertex 11.575 10.35 3
    endloop
  endfacet
  facet normal 0 0 1
    outer loop
      vertex 50.575 32.695 3
      vertex 26.351 31.866 3
      vertex 26.601 31.433 3
    endloop
  endfacet
  facet normal 0 0 1
    outer loop
      vertex 11.438 19.859 3
      vertex 11.575 10.35 3
      vertex 12.375 11.736 3
    endloop
  endfacet
  facet normal 0 0 1
    outer loop
      vertex 14.775 10.35 3
      vertex 13.975 8.964 3
      vertex 14.618 0 3
    endloop
  endfacet
  facet normal 0 0 1
    outer loop
      vertex 14.911 19.859 3
      vertex 11.958 20.102 3
      vertex 13.975 11.736 3
    endloop
  endfacet
  facet normal 0 0 1
    outer loop
      vertex 15.317 20.264 3
      vertex 14.775 10.35 3
      vertex 14.618 0 3
    endloop
  endfacet
  facet normal 0 0 1
    outer loop
      vertex 15.317 20.264 3
      vertex 14.911 19.859 3
      vertex 14.775 10.35 3
    endloop
  endfacet
  facet normal 0 0 1
    outer loop
      vertex 13.975 8.964 3
      vertex 12.375 8.964 3
      vertex 14.618 0 3
    endloop
  endfacet
  facet normal 0 0 1
    outer loop
      vertex 26.843 30.913 3
      vertex 26.437 30.507 3
      vertex 50.575 32.695 3
    endloop
  endfacet
  facet normal 0 0 1
    outer loop
      vertex 26.351 34.357 3
      vertex 51.375 34.08 3
      vertex 77.914 34.837 3
    endloop
  endfacet
  facet normal 0 0 1
    outer loop
      vertex 26.351 34.357 3
      vertex 26.351 31.866 3
      vertex 51.375 34.08 3
    endloop
  endfacet
  facet normal 0 0 1
    outer loop
      vertex 51.375 34.08 3
      vertex 52.975 34.08 3
      vertex 77.914 34.837 3
    endloop
  endfacet
  facet normal 0 0 1
    outer loop
      vertex 53.775 32.695 3
      vertex 52.975 31.309 3
      vertex 77.914 34.837 3
    endloop
  endfacet
  facet normal 0 0 1
    outer loop
      vertex 60.214 68.118 3
      vertex 61.836 67.035 3
      vertex 76.001 76.869 3
    endloop
  endfacet
  facet normal 0 0 1
    outer loop
      vertex 54.393 76.87 3
      vertex 53.3 63.499 3
      vertex 53.681 65.413 3
    endloop
  endfacet
  facet normal 0 0 1
    outer loop
      vertex 58.3 68.499 3
      vertex 60.214 68.118 3
      vertex 76.001 76.869 3
    endloop
  endfacet
  facet normal 0 0 1
    outer loop
      vertex 54.393 76.87 3
      vertex 53.681 65.413 3
      vertex 54.765 67.035 3
    endloop
  endfacet
  facet normal 0 0 1
    outer loop
      vertex 54.393 76.87 3
      vertex 56.387 68.118 3
      vertex 76.001 76.869 3
    endloop
  endfacet
  facet normal 0 0 1
    outer loop
      vertex 54.393 76.87 3
      vertex 54.765 67.035 3
      vertex 56.387 68.118 3
    endloop
  endfacet
  facet normal 0 0 1
    outer loop
      vertex 78.342 76.639 3
      vertex 62.92 65.413 3
      vertex 80.593 75.956 3
    endloop
  endfacet
  facet normal 0 0 1
    outer loop
      vertex 80.593 75.956 3
      vertex 63.3 63.499 3
      vertex 82.667 74.847 3
    endloop
  endfacet
  facet normal 0 0 1
    outer loop
      vertex 82.667 74.847 3
      vertex 62.92 61.586 3
      vertex 84.486 73.355 3
    endloop
  endfacet
  facet normal 0 0 1
    outer loop
      vertex 14.825 31 3
      vertex 84.929 19.79 3
      vertex 86.238 21.548 3
    endloop
  endfacet
  facet normal 0 0 1
    outer loop
      vertex 75.782 67.466 3
      vertex 85.978 71.536 3
      vertex 84.486 73.355 3
    endloop
  endfacet
  facet normal 0 0 1
    outer loop
      vertex 14.825 31 3
      vertex 86.238 21.548 3
      vertex 87.206 23.515 3
    endloop
  endfacet
  facet normal 0 0 1
    outer loop
      vertex 14.825 31 3
      vertex 14.825 21.217 3
      vertex 84.929 19.79 3
    endloop
  endfacet
  facet normal 0 0 1
    outer loop
      vertex 71.416 62.538 3
      vertex 71.416 64.452 3
      vertex 60.214 58.88 3
    endloop
  endfacet
  facet normal 0 0 1
    outer loop
      vertex 78.842 65.354 3
      vertex 79.3 63.495 3
      vertex 87.087 69.461 3
    endloop
  endfacet
  facet normal 0 0 1
    outer loop
      vertex 26.437 30.507 3
      vertex 77.507 30.958 3
      vertex 77.75 31.477 3
    endloop
  endfacet
  facet normal 0 0 1
    outer loop
      vertex 77.572 66.787 3
      vertex 87.087 69.461 3
      vertex 85.978 71.536 3
    endloop
  endfacet
  facet normal 0 0 1
    outer loop
      vertex 26.437 30.507 3
      vertex 88 27.808 3
      vertex 77.913 30.552 3
    endloop
  endfacet
  facet normal 0 0 1
    outer loop
      vertex 73.882 67.235 3
      vertex 75.782 67.466 3
      vertex 84.486 73.355 3
    endloop
  endfacet
  facet normal 0 0 1
    outer loop
      vertex 61.836 59.964 3
      vertex 60.214 58.88 3
      vertex 72.306 66.147 3
    endloop
  endfacet
  facet normal 0 0 1
    outer loop
      vertex 62.92 61.586 3
      vertex 73.882 67.235 3
      vertex 84.486 73.355 3
    endloop
  endfacet
  facet normal 0 0 1
    outer loop
      vertex 62.92 61.586 3
      vertex 61.836 59.964 3
      vertex 73.882 67.235 3
    endloop
  endfacet
  facet normal 0 0 1
    outer loop
      vertex 77.572 66.787 3
      vertex 78.842 65.354 3
      vertex 87.087 69.461 3
    endloop
  endfacet
  facet normal 0 0 1
    outer loop
      vertex 14.825 31 3
      vertex 88 27.808 3
      vertex 26.437 30.507 3
    endloop
  endfacet
  facet normal 0 0 1
    outer loop
      vertex 77.913 30.552 3
      vertex 88 27.808 3
      vertex 88 31.044 3
    endloop
  endfacet
  facet normal 0 0 1
    outer loop
      vertex 26.437 30.507 3
      vertex 77.75 31.477 3
      vertex 78 31.91 3
    endloop
  endfacet
  facet normal 0 0 1
    outer loop
      vertex 87.087 69.461 3
      vertex 79.3 63.495 3
      vertex 87.77 67.21 3
    endloop
  endfacet
  facet normal 0 0 1
    outer loop
      vertex 52.975 31.309 3
      vertex 78 33.478 3
      vertex 77.75 33.911 3
    endloop
  endfacet
  facet normal 0 0 1
    outer loop
      vertex 87.77 67.21 3
      vertex 78.842 61.636 3
      vertex 88.001 64.869 3
    endloop
  endfacet
  facet normal 0 0 1
    outer loop
      vertex 26.437 30.507 3
      vertex 52.975 31.309 3
      vertex 51.375 31.309 3
    endloop
  endfacet
  facet normal 0 0 1
    outer loop
      vertex 78.842 61.636 3
      vertex 77.572 60.203 3
      vertex 88.001 64.869 3
    endloop
  endfacet
  facet normal 0 0 1
    outer loop
      vertex 52.975 31.309 3
      vertex 77.508 34.431 3
      vertex 77.914 34.837 3
    endloop
  endfacet
  facet normal 0 0 1
    outer loop
      vertex 52.975 31.309 3
      vertex 78 31.91 3
      vertex 78 33.478 3
    endloop
  endfacet
  facet normal 0 0 1
    outer loop
      vertex 12.375 11.736 3
      vertex 11.958 20.102 3
      vertex 11.438 19.859 3
    endloop
  endfacet
  facet normal 0 0 1
    outer loop
      vertex 43.675 70.268 3
      vertex 50.075 76.066 3
      vertex 48.099 75.087 3
    endloop
  endfacet
  facet normal 0 0 1
    outer loop
      vertex 43.675 70.268 3
      vertex 52.197 76.667 3
      vertex 50.075 76.066 3
    endloop
  endfacet
  facet normal 0 0 1
    outer loop
      vertex 43.675 70.268 3
      vertex 54.393 76.87 3
      vertex 52.197 76.667 3
    endloop
  endfacet
  facet normal 0 0 1
    outer loop
      vertex 43.675 70.268 3
      vertex 53.3 63.499 3
      vertex 54.393 76.87 3
    endloop
  endfacet
  facet normal 0 0 1
    outer loop
      vertex 43.675 70.268 3
      vertex 53.681 61.586 3
      vertex 53.3 63.499 3
    endloop
  endfacet
  facet normal 0 0 1
    outer loop
      vertex 61.836 67.035 3
      vertex 78.342 76.639 3
      vertex 76.001 76.869 3
    endloop
  endfacet
  facet normal 0 0 1
    outer loop
      vertex 71.416 64.452 3
      vertex 72.306 66.147 3
      vertex 60.214 58.88 3
    endloop
  endfacet
  facet normal 0 0 1
    outer loop
      vertex 62.92 65.413 3
      vertex 63.3 63.499 3
      vertex 80.593 75.956 3
    endloop
  endfacet
  facet normal 0 0 1
    outer loop
      vertex 43.675 70.268 3
      vertex 54.765 59.964 3
      vertex 53.681 61.586 3
    endloop
  endfacet
  facet normal 0 0 1
    outer loop
      vertex 63.3 63.499 3
      vertex 62.92 61.586 3
      vertex 82.667 74.847 3
    endloop
  endfacet
  facet normal 0 0 1
    outer loop
      vertex 72.306 66.147 3
      vertex 73.882 67.235 3
      vertex 61.836 59.964 3
    endloop
  endfacet
  facet normal 0 0 1
    outer loop
      vertex 75.782 67.466 3
      vertex 77.572 66.787 3
      vertex 85.978 71.536 3
    endloop
  endfacet
  facet normal 0 0 1
    outer loop
      vertex 79.3 63.495 3
      vertex 78.842 61.636 3
      vertex 87.77 67.21 3
    endloop
  endfacet
  facet normal 0 0 1
    outer loop
      vertex 60.214 58.88 3
      vertex 72.306 60.843 3
      vertex 71.416 62.538 3
    endloop
  endfacet
  facet normal 0 0 1
    outer loop
      vertex 58.3 58.499 3
      vertex 72.306 60.843 3
      vertex 60.214 58.88 3
    endloop
  endfacet
  facet normal 0 0 1
    outer loop
      vertex 58.3 58.499 3
      vertex 73.882 59.755 3
      vertex 72.306 60.843 3
    endloop
  endfacet
  facet normal 0 0 1
    outer loop
      vertex 58.3 58.499 3
      vertex 75.782 59.524 3
      vertex 73.882 59.755 3
    endloop
  endfacet
  facet normal 0 0 1
    outer loop
      vertex 77.572 60.203 3
      vertex 26.351 34.357 3
      vertex 88.001 64.869 3
    endloop
  endfacet
  facet normal 0 0 1
    outer loop
      vertex 75.782 59.524 3
      vertex 26.351 34.357 3
      vertex 77.572 60.203 3
    endloop
  endfacet
  facet normal 0 0 1
    outer loop
      vertex 58.3 58.499 3
      vertex 26.351 34.357 3
      vertex 75.782 59.524 3
    endloop
  endfacet
  facet normal 0 0 1
    outer loop
      vertex 56.387 58.88 3
      vertex 26.351 34.357 3
      vertex 58.3 58.499 3
    endloop
  endfacet
  facet normal 0 0 1
    outer loop
      vertex 54.765 59.964 3
      vertex 26.351 34.357 3
      vertex 56.387 58.88 3
    endloop
  endfacet
  facet normal 0 0 1
    outer loop
      vertex 43.675 70.268 3
      vertex 26.351 34.357 3
      vertex 54.765 59.964 3
    endloop
  endfacet
  facet normal 0.244021 -0.96977 0
    outer loop
      vertex 14.618 0 0
      vertex 79.436 16.31 0
      vertex 79.436 16.31 3
    endloop
  endfacet
  facet normal 0.244021 -0.96977 0
    outer loop
      vertex 14.618 0 3
      vertex 14.618 0 0
      vertex 79.436 16.31 3
    endloop
  endfacet
  facet normal -0.997353 -0.0727117 0
    outer loop
      vertex 0.127 19.793 0
      vertex 0.127 19.793 3
      vertex 0 21.535 0
    endloop
  endfacet
  facet normal -0.997353 -0.0727117 0
    outer loop
      vertex 0 21.535 0
      vertex 0.127 19.793 3
      vertex 0 21.535 3
    endloop
  endfacet
  facet normal -1 0 0
    outer loop
      vertex 0 21.535 3
      vertex 0 31.003 3
      vertex 0 21.535 0
    endloop
  endfacet
  facet normal -1 0 0
    outer loop
      vertex 0 21.535 0
      vertex 0 31.003 3
      vertex 0 31.003 0
    endloop
  endfacet
  facet normal -0.976295 -0.216445 0
    outer loop
      vertex 0.505 18.088 0
      vertex 0.505 18.088 3
      vertex 0.127 19.793 0
    endloop
  endfacet
  facet normal -0.976295 -0.216445 0
    outer loop
      vertex 0.127 19.793 0
      vertex 0.505 18.088 3
      vertex 0.127 19.793 3
    endloop
  endfacet
  facet normal -0.934433 -0.356138 0
    outer loop
      vertex 1.127 16.456 0
      vertex 1.127 16.456 3
      vertex 0.505 18.088 0
    endloop
  endfacet
  facet normal -0.934433 -0.356138 0
    outer loop
      vertex 0.505 18.088 0
      vertex 1.127 16.456 3
      vertex 0.505 18.088 3
    endloop
  endfacet
  facet normal 0.372727 -0.927941 0
    outer loop
      vertex 79.436 16.31 0
      vertex 81.47 17.127 0
      vertex 81.47 17.127 3
    endloop
  endfacet
  facet normal 0.372727 -0.927941 0
    outer loop
      vertex 79.436 16.31 3
      vertex 79.436 16.31 0
      vertex 81.47 17.127 3
    endloop
  endfacet
  facet normal 0.53528 -0.844675 0
    outer loop
      vertex 81.47 17.127 0
      vertex 83.321 18.3 0
      vertex 83.321 18.3 3
    endloop
  endfacet
  facet normal 0.53528 -0.844675 0
    outer loop
      vertex 81.47 17.127 3
      vertex 81.47 17.127 0
      vertex 83.321 18.3 3
    endloop
  endfacet
  facet normal 0.679681 -0.733508 0
    outer loop
      vertex 83.321 18.3 0
      vertex 84.929 19.79 0
      vertex 84.929 19.79 3
    endloop
  endfacet
  facet normal 0.679681 -0.733508 0
    outer loop
      vertex 83.321 18.3 3
      vertex 83.321 18.3 0
      vertex 84.929 19.79 3
    endloop
  endfacet
  facet normal 0.802076 -0.597222 0
    outer loop
      vertex 84.929 19.79 0
      vertex 86.238 21.548 0
      vertex 86.238 21.548 3
    endloop
  endfacet
  facet normal 0.802076 -0.597222 0
    outer loop
      vertex 84.929 19.79 3
      vertex 84.929 19.79 0
      vertex 86.238 21.548 3
    endloop
  endfacet
  facet normal 0.897237 -0.441548 0
    outer loop
      vertex 86.238 21.548 0
      vertex 87.206 23.515 0
      vertex 87.206 23.515 3
    endloop
  endfacet
  facet normal 0.897237 -0.441548 0
    outer loop
      vertex 86.238 21.548 3
      vertex 86.238 21.548 0
      vertex 87.206 23.515 3
    endloop
  endfacet
  facet normal 0.962584 -0.270983 0
    outer loop
      vertex 87.206 23.515 0
      vertex 87.8 25.625 0
      vertex 87.8 25.625 3
    endloop
  endfacet
  facet normal 0.962584 -0.270983 0
    outer loop
      vertex 87.206 23.515 3
      vertex 87.206 23.515 0
      vertex 87.8 25.625 3
    endloop
  endfacet
  facet normal 0.995829 -0.0912349 0
    outer loop
      vertex 87.8 25.625 0
      vertex 88 27.808 0
      vertex 88 27.808 3
    endloop
  endfacet
  facet normal 0.995829 -0.0912349 0
    outer loop
      vertex 87.8 25.625 3
      vertex 87.8 25.625 0
      vertex 88 27.808 3
    endloop
  endfacet
  facet normal 1 0 0
    outer loop
      vertex 88 27.808 0
      vertex 88 31.044 0
      vertex 88 31.044 3
    endloop
  endfacet
  facet normal 1 0 0
    outer loop
      vertex 88 27.808 3
      vertex 88 27.808 0
      vertex 88 31.044 3
    endloop
  endfacet
  facet normal 0 1 0
    outer loop
      vertex 78.866 31.044 3
      vertex 88 31.044 3
      vertex 78.866 31.044 0
    endloop
  endfacet
  facet normal 0 1 0
    outer loop
      vertex 78.866 31.044 0
      vertex 88 31.044 3
      vertex 88 31.044 0
    endloop
  endfacet
  facet normal -0.500011 0.866019 0
    outer loop
      vertex 78.433 30.794 3
      vertex 78.866 31.044 3
      vertex 78.433 30.794 0
    endloop
  endfacet
  facet normal -0.500011 0.866019 0
    outer loop
      vertex 78.433 30.794 0
      vertex 78.866 31.044 3
      vertex 78.866 31.044 0
    endloop
  endfacet
  facet normal -0.421931 0.906628 0
    outer loop
      vertex 77.913 30.552 3
      vertex 78.433 30.794 3
      vertex 77.913 30.552 0
    endloop
  endfacet
  facet normal -0.421931 0.906628 0
    outer loop
      vertex 77.913 30.552 0
      vertex 78.433 30.794 3
      vertex 78.433 30.794 0
    endloop
  endfacet
  facet normal 0.707107 0.707107 0
    outer loop
      vertex 77.507 30.958 3
      vertex 77.913 30.552 3
      vertex 77.507 30.958 0
    endloop
  endfacet
  facet normal 0.707107 0.707107 0
    outer loop
      vertex 77.507 30.958 0
      vertex 77.913 30.552 3
      vertex 77.913 30.552 0
    endloop
  endfacet
  facet normal 0.905647 -0.424031 0
    outer loop
      vertex 77.507 30.958 0
      vertex 77.75 31.477 0
      vertex 77.75 31.477 3
    endloop
  endfacet
  facet normal 0.905647 -0.424031 0
    outer loop
      vertex 77.507 30.958 3
      vertex 77.507 30.958 0
      vertex 77.75 31.477 3
    endloop
  endfacet
  facet normal 0.866019 -0.500011 0
    outer loop
      vertex 77.75 31.477 0
      vertex 78 31.91 0
      vertex 78 31.91 3
    endloop
  endfacet
  facet normal 0.866019 -0.500011 0
    outer loop
      vertex 77.75 31.477 3
      vertex 77.75 31.477 0
      vertex 78 31.91 3
    endloop
  endfacet
  facet normal 1 0 0
    outer loop
      vertex 78 31.91 0
      vertex 78 33.478 0
      vertex 78 33.478 3
    endloop
  endfacet
  facet normal 1 0 0
    outer loop
      vertex 78 31.91 3
      vertex 78 31.91 0
      vertex 78 33.478 3
    endloop
  endfacet
  facet normal 0.866019 0.500011 0
    outer loop
      vertex 77.75 33.911 0
      vertex 77.75 33.911 3
      vertex 78 33.478 3
    endloop
  endfacet
  facet normal 0.866019 0.500011 0
    outer loop
      vertex 78 33.478 0
      vertex 77.75 33.911 0
      vertex 78 33.478 3
    endloop
  endfacet
  facet normal 0.906628 0.421931 0
    outer loop
      vertex 77.508 34.431 0
      vertex 77.508 34.431 3
      vertex 77.75 33.911 3
    endloop
  endfacet
  facet normal 0.906628 0.421931 0
    outer loop
      vertex 77.75 33.911 0
      vertex 77.508 34.431 0
      vertex 77.75 33.911 3
    endloop
  endfacet
  facet normal 0.707107 -0.707107 0
    outer loop
      vertex 77.508 34.431 0
      vertex 77.914 34.837 0
      vertex 77.914 34.837 3
    endloop
  endfacet
  facet normal 0.707107 -0.707107 0
    outer loop
      vertex 77.508 34.431 3
      vertex 77.508 34.431 0
      vertex 77.914 34.837 3
    endloop
  endfacet
  facet normal -0.423362 -0.90596 0
    outer loop
      vertex 77.914 34.837 0
      vertex 78.434 34.594 0
      vertex 78.434 34.594 3
    endloop
  endfacet
  facet normal -0.423362 -0.90596 0
    outer loop
      vertex 77.914 34.837 3
      vertex 77.914 34.837 0
      vertex 78.434 34.594 3
    endloop
  endfacet
  facet normal -0.500011 -0.866019 0
    outer loop
      vertex 78.434 34.594 0
      vertex 78.867 34.344 0
      vertex 78.867 34.344 3
    endloop
  endfacet
  facet normal -0.500011 -0.866019 0
    outer loop
      vertex 78.434 34.594 3
      vertex 78.434 34.594 0
      vertex 78.867 34.344 3
    endloop
  endfacet
  facet normal 0 -1 0
    outer loop
      vertex 78.867 34.344 0
      vertex 88 34.344 0
      vertex 88 34.344 3
    endloop
  endfacet
  facet normal 0 -1 0
    outer loop
      vertex 78.867 34.344 3
      vertex 78.867 34.344 0
      vertex 88 34.344 3
    endloop
  endfacet
  facet normal 1 -3.276e-005 0
    outer loop
      vertex 88 34.344 0
      vertex 88.001 64.869 0
      vertex 88.001 64.869 3
    endloop
  endfacet
  facet normal 1 -3.276e-005 0
    outer loop
      vertex 88 34.344 3
      vertex 88 34.344 0
      vertex 88.001 64.869 3
    endloop
  endfacet
  facet normal 0.995167 0.0981989 0
    outer loop
      vertex 87.77 67.21 0
      vertex 87.77 67.21 3
      vertex 88.001 64.869 3
    endloop
  endfacet
  facet normal 0.995167 0.0981989 0
    outer loop
      vertex 88.001 64.869 0
      vertex 87.77 67.21 0
      vertex 88.001 64.869 3
    endloop
  endfacet
  facet normal 0.956921 0.29035 0
    outer loop
      vertex 87.087 69.461 0
      vertex 87.087 69.461 3
      vertex 87.77 67.21 3
    endloop
  endfacet
  facet normal 0.956921 0.29035 0
    outer loop
      vertex 87.77 67.21 0
      vertex 87.087 69.461 0
      vertex 87.77 67.21 3
    endloop
  endfacet
  facet normal 0.881941 0.47136 0
    outer loop
      vertex 85.978 71.536 0
      vertex 85.978 71.536 3
      vertex 87.087 69.461 3
    endloop
  endfacet
  facet normal 0.881941 0.47136 0
    outer loop
      vertex 87.087 69.461 0
      vertex 85.978 71.536 0
      vertex 87.087 69.461 3
    endloop
  endfacet
  facet normal 0.77318 0.634186 0
    outer loop
      vertex 84.486 73.355 0
      vertex 84.486 73.355 3
      vertex 85.978 71.536 3
    endloop
  endfacet
  facet normal 0.77318 0.634186 0
    outer loop
      vertex 85.978 71.536 0
      vertex 84.486 73.355 0
      vertex 85.978 71.536 3
    endloop
  endfacet
  facet normal 0.634186 0.77318 0
    outer loop
      vertex 82.667 74.847 3
      vertex 84.486 73.355 3
      vertex 82.667 74.847 0
    endloop
  endfacet
  facet normal 0.634186 0.77318 0
    outer loop
      vertex 82.667 74.847 0
      vertex 84.486 73.355 3
      vertex 84.486 73.355 0
    endloop
  endfacet
  facet normal 0.471537 0.881846 0
    outer loop
      vertex 80.593 75.956 3
      vertex 82.667 74.847 3
      vertex 80.593 75.956 0
    endloop
  endfacet
  facet normal 0.471537 0.881846 0
    outer loop
      vertex 80.593 75.956 0
      vertex 82.667 74.847 3
      vertex 82.667 74.847 0
    endloop
  endfacet
  facet normal 0.29035 0.956921 0
    outer loop
      vertex 78.342 76.639 3
      vertex 80.593 75.956 3
      vertex 78.342 76.639 0
    endloop
  endfacet
  facet normal 0.29035 0.956921 0
    outer loop
      vertex 78.342 76.639 0
      vertex 80.593 75.956 3
      vertex 80.593 75.956 0
    endloop
  endfacet
  facet normal 0.0977778 0.995208 0
    outer loop
      vertex 76.001 76.869 3
      vertex 78.342 76.639 3
      vertex 76.001 76.869 0
    endloop
  endfacet
  facet normal 0.0977778 0.995208 0
    outer loop
      vertex 76.001 76.869 0
      vertex 78.342 76.639 3
      vertex 78.342 76.639 0
    endloop
  endfacet
  facet normal 4.62792e-005 1 0
    outer loop
      vertex 54.393 76.87 3
      vertex 76.001 76.869 3
      vertex 54.393 76.87 0
    endloop
  endfacet
  facet normal 4.62792e-005 1 0
    outer loop
      vertex 54.393 76.87 0
      vertex 76.001 76.869 3
      vertex 76.001 76.869 0
    endloop
  endfacet
  facet normal -0.0920483 0.995755 0
    outer loop
      vertex 52.197 76.667 3
      vertex 54.393 76.87 3
      vertex 52.197 76.667 0
    endloop
  endfacet
  facet normal -0.0920483 0.995755 0
    outer loop
      vertex 52.197 76.667 0
      vertex 54.393 76.87 3
      vertex 54.393 76.87 0
    endloop
  endfacet
  facet normal -0.272505 0.962154 0
    outer loop
      vertex 50.075 76.066 3
      vertex 52.197 76.667 3
      vertex 50.075 76.066 0
    endloop
  endfacet
  facet normal -0.272505 0.962154 0
    outer loop
      vertex 50.075 76.066 0
      vertex 52.197 76.667 3
      vertex 52.197 76.667 0
    endloop
  endfacet
  facet normal -0.443946 0.896054 0
    outer loop
      vertex 48.099 75.087 3
      vertex 50.075 76.066 3
      vertex 48.099 75.087 0
    endloop
  endfacet
  facet normal -0.443946 0.896054 0
    outer loop
      vertex 48.099 75.087 0
      vertex 50.075 76.066 3
      vertex 50.075 76.066 0
    endloop
  endfacet
  facet normal -0.600798 0.799401 0
    outer loop
      vertex 46.336 73.762 3
      vertex 48.099 75.087 3
      vertex 46.336 73.762 0
    endloop
  endfacet
  facet normal -0.600798 0.799401 0
    outer loop
      vertex 46.336 73.762 0
      vertex 48.099 75.087 3
      vertex 48.099 75.087 0
    endloop
  endfacet
  facet normal -0.736401 0.676546 0
    outer loop
      vertex 44.844 72.138 3
      vertex 46.336 73.762 3
      vertex 44.844 72.138 0
    endloop
  endfacet
  facet normal -0.736401 0.676546 0
    outer loop
      vertex 44.844 72.138 0
      vertex 46.336 73.762 3
      vertex 46.336 73.762 0
    endloop
  endfacet
  facet normal -0.847947 0.53008 0
    outer loop
      vertex 43.675 70.268 3
      vertex 44.844 72.138 3
      vertex 43.675 70.268 0
    endloop
  endfacet
  facet normal -0.847947 0.53008 0
    outer loop
      vertex 43.675 70.268 0
      vertex 44.844 72.138 3
      vertex 44.844 72.138 0
    endloop
  endfacet
  facet normal -0.900673 0.434498 0
    outer loop
      vertex 26.351 34.357 3
      vertex 43.675 70.268 3
      vertex 26.351 34.357 0
    endloop
  endfacet
  facet normal -0.900673 0.434498 0
    outer loop
      vertex 26.351 34.357 0
      vertex 43.675 70.268 3
      vertex 43.675 70.268 0
    endloop
  endfacet
  facet normal -1 0 0
    outer loop
      vertex 26.351 31.866 3
      vertex 26.351 34.357 3
      vertex 26.351 31.866 0
    endloop
  endfacet
  facet normal -1 0 0
    outer loop
      vertex 26.351 31.866 0
      vertex 26.351 34.357 3
      vertex 26.351 34.357 0
    endloop
  endfacet
  facet normal -0.866019 -0.500011 0
    outer loop
      vertex 26.601 31.433 0
      vertex 26.601 31.433 3
      vertex 26.351 31.866 0
    endloop
  endfacet
  facet normal -0.866019 -0.500011 0
    outer loop
      vertex 26.351 31.866 0
      vertex 26.601 31.433 3
      vertex 26.351 31.866 3
    endloop
  endfacet
  facet normal -0.906628 -0.421931 0
    outer loop
      vertex 26.843 30.913 0
      vertex 26.843 30.913 3
      vertex 26.601 31.433 0
    endloop
  endfacet
  facet normal -0.906628 -0.421931 0
    outer loop
      vertex 26.601 31.433 0
      vertex 26.843 30.913 3
      vertex 26.601 31.433 3
    endloop
  endfacet
  facet normal -0.707107 0.707107 0
    outer loop
      vertex 26.437 30.507 3
      vertex 26.843 30.913 3
      vertex 26.437 30.507 0
    endloop
  endfacet
  facet normal -0.707107 0.707107 0
    outer loop
      vertex 26.437 30.507 0
      vertex 26.843 30.913 3
      vertex 26.843 30.913 0
    endloop
  endfacet
  facet normal 0.423362 0.90596 0
    outer loop
      vertex 25.917 30.75 3
      vertex 26.437 30.507 3
      vertex 25.917 30.75 0
    endloop
  endfacet
  facet normal 0.423362 0.90596 0
    outer loop
      vertex 25.917 30.75 0
      vertex 26.437 30.507 3
      vertex 26.437 30.507 0
    endloop
  endfacet
  facet normal 0.500011 0.866019 0
    outer loop
      vertex 25.484 31 3
      vertex 25.917 30.75 3
      vertex 25.484 31 0
    endloop
  endfacet
  facet normal 0.500011 0.866019 0
    outer loop
      vertex 25.484 31 0
      vertex 25.917 30.75 3
      vertex 25.917 30.75 0
    endloop
  endfacet
  facet normal 0 1 0
    outer loop
      vertex 14.825 31 3
      vertex 25.484 31 3
      vertex 14.825 31 0
    endloop
  endfacet
  facet normal 0 1 0
    outer loop
      vertex 14.825 31 0
      vertex 25.484 31 3
      vertex 25.484 31 0
    endloop
  endfacet
  facet normal -1 0 0
    outer loop
      vertex 14.825 21.217 3
      vertex 14.825 31 3
      vertex 14.825 21.217 0
    endloop
  endfacet
  facet normal -1 0 0
    outer loop
      vertex 14.825 21.217 0
      vertex 14.825 31 3
      vertex 14.825 31 0
    endloop
  endfacet
  facet normal -0.866019 -0.500011 0
    outer loop
      vertex 15.075 20.784 0
      vertex 15.075 20.784 3
      vertex 14.825 21.217 0
    endloop
  endfacet
  facet normal -0.866019 -0.500011 0
    outer loop
      vertex 14.825 21.217 0
      vertex 15.075 20.784 3
      vertex 14.825 21.217 3
    endloop
  endfacet
  facet normal -0.906628 -0.421931 0
    outer loop
      vertex 15.317 20.264 0
      vertex 15.317 20.264 3
      vertex 15.075 20.784 0
    endloop
  endfacet
  facet normal -0.906628 -0.421931 0
    outer loop
      vertex 15.075 20.784 0
      vertex 15.317 20.264 3
      vertex 15.075 20.784 3
    endloop
  endfacet
  facet normal -0.706234 0.707978 0
    outer loop
      vertex 14.911 19.859 3
      vertex 15.317 20.264 3
      vertex 14.911 19.859 0
    endloop
  endfacet
  facet normal -0.706234 0.707978 0
    outer loop
      vertex 14.911 19.859 0
      vertex 15.317 20.264 3
      vertex 15.317 20.264 0
    endloop
  endfacet
  facet normal 0.422599 0.906317 0
    outer loop
      vertex 14.392 20.101 3
      vertex 14.911 19.859 3
      vertex 14.392 20.101 0
    endloop
  endfacet
  facet normal 0.422599 0.906317 0
    outer loop
      vertex 14.392 20.101 0
      vertex 14.911 19.859 3
      vertex 14.911 19.859 0
    endloop
  endfacet
  facet normal 0.500011 0.866019 0
    outer loop
      vertex 13.959 20.351 3
      vertex 14.392 20.101 3
      vertex 13.959 20.351 0
    endloop
  endfacet
  facet normal 0.500011 0.866019 0
    outer loop
      vertex 13.959 20.351 0
      vertex 14.392 20.101 3
      vertex 14.392 20.101 0
    endloop
  endfacet
  facet normal 0.000637755 1 0
    outer loop
      vertex 12.391 20.352 3
      vertex 13.959 20.351 3
      vertex 12.391 20.352 0
    endloop
  endfacet
  facet normal 0.000637755 1 0
    outer loop
      vertex 12.391 20.352 0
      vertex 13.959 20.351 3
      vertex 13.959 20.351 0
    endloop
  endfacet
  facet normal -0.500011 0.866019 0
    outer loop
      vertex 11.958 20.102 3
      vertex 12.391 20.352 3
      vertex 11.958 20.102 0
    endloop
  endfacet
  facet normal -0.500011 0.866019 0
    outer loop
      vertex 11.958 20.102 0
      vertex 12.391 20.352 3
      vertex 12.391 20.352 0
    endloop
  endfacet
  facet normal -0.423362 0.90596 0
    outer loop
      vertex 11.438 19.859 3
      vertex 11.958 20.102 3
      vertex 11.438 19.859 0
    endloop
  endfacet
  facet normal -0.423362 0.90596 0
    outer loop
      vertex 11.438 19.859 0
      vertex 11.958 20.102 3
      vertex 11.958 20.102 0
    endloop
  endfacet
  facet normal 0.707107 0.707107 0
    outer loop
      vertex 11.032 20.265 0
      vertex 11.032 20.265 3
      vertex 11.438 19.859 3
    endloop
  endfacet
  facet normal 0.707107 0.707107 0
    outer loop
      vertex 11.438 19.859 0
      vertex 11.032 20.265 0
      vertex 11.438 19.859 3
    endloop
  endfacet
  facet normal 0.90596 -0.423362 0
    outer loop
      vertex 11.032 20.265 0
      vertex 11.275 20.785 0
      vertex 11.275 20.785 3
    endloop
  endfacet
  facet normal 0.90596 -0.423362 0
    outer loop
      vertex 11.032 20.265 3
      vertex 11.032 20.265 0
      vertex 11.275 20.785 3
    endloop
  endfacet
  facet normal 0.866019 -0.500011 0
    outer loop
      vertex 11.275 20.785 0
      vertex 11.525 21.218 0
      vertex 11.525 21.218 3
    endloop
  endfacet
  facet normal 0.866019 -0.500011 0
    outer loop
      vertex 11.275 20.785 3
      vertex 11.275 20.785 0
      vertex 11.525 21.218 3
    endloop
  endfacet
  facet normal 1 0 0
    outer loop
      vertex 11.525 21.218 0
      vertex 11.525 31 0
      vertex 11.525 31 3
    endloop
  endfacet
  facet normal 1 0 0
    outer loop
      vertex 11.525 21.218 3
      vertex 11.525 21.218 0
      vertex 11.525 31 3
    endloop
  endfacet
  facet normal 0.000260304 1 0
    outer loop
      vertex 0 31.003 3
      vertex 11.525 31 3
      vertex 0 31.003 0
    endloop
  endfacet
  facet normal 0.000260304 1 0
    outer loop
      vertex 0 31.003 0
      vertex 11.525 31 3
      vertex 11.525 31 0
    endloop
  endfacet
  facet normal 0.866082 0.499903 0
    outer loop
      vertex 11.575 10.35 0
      vertex 11.575 10.35 3
      vertex 12.375 8.964 3
    endloop
  endfacet
  facet normal 0.866082 0.499903 0
    outer loop
      vertex 12.375 8.964 0
      vertex 11.575 10.35 0
      vertex 12.375 8.964 3
    endloop
  endfacet
  facet normal 0.866082 -0.499903 0
    outer loop
      vertex 11.575 10.35 0
      vertex 12.375 11.736 0
      vertex 12.375 11.736 3
    endloop
  endfacet
  facet normal 0.866082 -0.499903 0
    outer loop
      vertex 11.575 10.35 3
      vertex 11.575 10.35 0
      vertex 12.375 11.736 3
    endloop
  endfacet
  facet normal 0 -1 0
    outer loop
      vertex 12.375 11.736 0
      vertex 13.975 11.736 0
      vertex 13.975 11.736 3
    endloop
  endfacet
  facet normal 0 -1 0
    outer loop
      vertex 12.375 11.736 3
      vertex 12.375 11.736 0
      vertex 13.975 11.736 3
    endloop
  endfacet
  facet normal -0.866082 -0.499903 0
    outer loop
      vertex 14.775 10.35 0
      vertex 14.775 10.35 3
      vertex 13.975 11.736 0
    endloop
  endfacet
  facet normal -0.866082 -0.499903 0
    outer loop
      vertex 13.975 11.736 0
      vertex 14.775 10.35 3
      vertex 13.975 11.736 3
    endloop
  endfacet
  facet normal -0.866082 0.499903 0
    outer loop
      vertex 13.975 8.964 3
      vertex 14.775 10.35 3
      vertex 13.975 8.964 0
    endloop
  endfacet
  facet normal -0.866082 0.499903 0
    outer loop
      vertex 13.975 8.964 0
      vertex 14.775 10.35 3
      vertex 14.775 10.35 0
    endloop
  endfacet
  facet normal 0 1 0
    outer loop
      vertex 12.375 8.964 3
      vertex 13.975 8.964 3
      vertex 12.375 8.964 0
    endloop
  endfacet
  facet normal 0 1 0
    outer loop
      vertex 12.375 8.964 0
      vertex 13.975 8.964 3
      vertex 13.975 8.964 0
    endloop
  endfacet
  facet normal 0.866082 0.499903 0
    outer loop
      vertex 50.575 32.695 0
      vertex 50.575 32.695 3
      vertex 51.375 31.309 3
    endloop
  endfacet
  facet normal 0.866082 0.499903 0
    outer loop
      vertex 51.375 31.309 0
      vertex 50.575 32.695 0
      vertex 51.375 31.309 3
    endloop
  endfacet
  facet normal 0.865925 -0.500173 0
    outer loop
      vertex 50.575 32.695 0
      vertex 51.375 34.08 0
      vertex 51.375 34.08 3
    endloop
  endfacet
  facet normal 0.865925 -0.500173 0
    outer loop
      vertex 50.575 32.695 3
      vertex 50.575 32.695 0
      vertex 51.375 34.08 3
    endloop
  endfacet
  facet normal 0 -1 0
    outer loop
      vertex 51.375 34.08 0
      vertex 52.975 34.08 0
      vertex 52.975 34.08 3
    endloop
  endfacet
  facet normal 0 -1 0
    outer loop
      vertex 51.375 34.08 3
      vertex 51.375 34.08 0
      vertex 52.975 34.08 3
    endloop
  endfacet
  facet normal -0.865925 -0.500173 0
    outer loop
      vertex 53.775 32.695 0
      vertex 53.775 32.695 3
      vertex 52.975 34.08 0
    endloop
  endfacet
  facet normal -0.865925 -0.500173 0
    outer loop
      vertex 52.975 34.08 0
      vertex 53.775 32.695 3
      vertex 52.975 34.08 3
    endloop
  endfacet
  facet normal -0.866082 0.499903 0
    outer loop
      vertex 52.975 31.309 3
      vertex 53.775 32.695 3
      vertex 52.975 31.309 0
    endloop
  endfacet
  facet normal -0.866082 0.499903 0
    outer loop
      vertex 52.975 31.309 0
      vertex 53.775 32.695 3
      vertex 53.775 32.695 0
    endloop
  endfacet
  facet normal 0 1 0
    outer loop
      vertex 51.375 31.309 3
      vertex 52.975 31.309 3
      vertex 51.375 31.309 0
    endloop
  endfacet
  facet normal 0 1 0
    outer loop
      vertex 51.375 31.309 0
      vertex 52.975 31.309 3
      vertex 52.975 31.309 0
    endloop
  endfacet
  facet normal 0.980738 0.195327 0
    outer loop
      vertex 53.3 63.499 0
      vertex 53.3 63.499 3
      vertex 53.681 61.586 3
    endloop
  endfacet
  facet normal 0.980738 0.195327 0
    outer loop
      vertex 53.681 61.586 0
      vertex 53.3 63.499 0
      vertex 53.681 61.586 3
    endloop
  endfacet
  facet normal 0.980758 -0.195229 0
    outer loop
      vertex 53.3 63.499 0
      vertex 53.681 65.413 0
      vertex 53.681 65.413 3
    endloop
  endfacet
  facet normal 0.980758 -0.195229 0
    outer loop
      vertex 53.3 63.499 3
      vertex 53.3 63.499 0
      vertex 53.681 65.413 3
    endloop
  endfacet
  facet normal 0.831419 -0.555646 0
    outer loop
      vertex 53.681 65.413 0
      vertex 54.765 67.035 0
      vertex 54.765 67.035 3
    endloop
  endfacet
  facet normal 0.831419 -0.555646 0
    outer loop
      vertex 53.681 65.413 3
      vertex 53.681 65.413 0
      vertex 54.765 67.035 3
    endloop
  endfacet
  facet normal 0.555292 -0.831656 0
    outer loop
      vertex 54.765 67.035 0
      vertex 56.387 68.118 0
      vertex 56.387 68.118 3
    endloop
  endfacet
  facet normal 0.555292 -0.831656 0
    outer loop
      vertex 54.765 67.035 3
      vertex 54.765 67.035 0
      vertex 56.387 68.118 3
    endloop
  endfacet
  facet normal 0.195327 -0.980738 0
    outer loop
      vertex 56.387 68.118 0
      vertex 58.3 68.499 0
      vertex 58.3 68.499 3
    endloop
  endfacet
  facet normal 0.195327 -0.980738 0
    outer loop
      vertex 56.387 68.118 3
      vertex 56.387 68.118 0
      vertex 58.3 68.499 3
    endloop
  endfacet
  facet normal -0.195229 -0.980758 0
    outer loop
      vertex 58.3 68.499 0
      vertex 60.214 68.118 0
      vertex 60.214 68.118 3
    endloop
  endfacet
  facet normal -0.195229 -0.980758 0
    outer loop
      vertex 58.3 68.499 3
      vertex 58.3 68.499 0
      vertex 60.214 68.118 3
    endloop
  endfacet
  facet normal -0.555292 -0.831656 0
    outer loop
      vertex 60.214 68.118 0
      vertex 61.836 67.035 0
      vertex 61.836 67.035 3
    endloop
  endfacet
  facet normal -0.555292 -0.831656 0
    outer loop
      vertex 60.214 68.118 3
      vertex 60.214 68.118 0
      vertex 61.836 67.035 3
    endloop
  endfacet
  facet normal -0.831419 -0.555646 0
    outer loop
      vertex 62.92 65.413 0
      vertex 62.92 65.413 3
      vertex 61.836 67.035 0
    endloop
  endfacet
  facet normal -0.831419 -0.555646 0
    outer loop
      vertex 61.836 67.035 0
      vertex 62.92 65.413 3
      vertex 61.836 67.035 3
    endloop
  endfacet
  facet normal -0.980856 -0.194736 0
    outer loop
      vertex 63.3 63.499 0
      vertex 63.3 63.499 3
      vertex 62.92 65.413 0
    endloop
  endfacet
  facet normal -0.980856 -0.194736 0
    outer loop
      vertex 62.92 65.413 0
      vertex 63.3 63.499 3
      vertex 62.92 65.413 3
    endloop
  endfacet
  facet normal -0.980836 0.194834 0
    outer loop
      vertex 62.92 61.586 3
      vertex 63.3 63.499 3
      vertex 62.92 61.586 0
    endloop
  endfacet
  facet normal -0.980836 0.194834 0
    outer loop
      vertex 62.92 61.586 0
      vertex 63.3 63.499 3
      vertex 63.3 63.499 0
    endloop
  endfacet
  facet normal -0.831419 0.555646 0
    outer loop
      vertex 61.836 59.964 3
      vertex 62.92 61.586 3
      vertex 61.836 59.964 0
    endloop
  endfacet
  facet normal -0.831419 0.555646 0
    outer loop
      vertex 61.836 59.964 0
      vertex 62.92 61.586 3
      vertex 62.92 61.586 0
    endloop
  endfacet
  facet normal -0.555646 0.831419 0
    outer loop
      vertex 60.214 58.88 3
      vertex 61.836 59.964 3
      vertex 60.214 58.88 0
    endloop
  endfacet
  facet normal -0.555646 0.831419 0
    outer loop
      vertex 60.214 58.88 0
      vertex 61.836 59.964 3
      vertex 61.836 59.964 0
    endloop
  endfacet
  facet normal -0.195229 0.980758 0
    outer loop
      vertex 58.3 58.499 3
      vertex 60.214 58.88 3
      vertex 58.3 58.499 0
    endloop
  endfacet
  facet normal -0.195229 0.980758 0
    outer loop
      vertex 58.3 58.499 0
      vertex 60.214 58.88 3
      vertex 60.214 58.88 0
    endloop
  endfacet
  facet normal 0.195327 0.980738 0
    outer loop
      vertex 56.387 58.88 3
      vertex 58.3 58.499 3
      vertex 56.387 58.88 0
    endloop
  endfacet
  facet normal 0.195327 0.980738 0
    outer loop
      vertex 56.387 58.88 0
      vertex 58.3 58.499 3
      vertex 58.3 58.499 0
    endloop
  endfacet
  facet normal 0.555646 0.831419 0
    outer loop
      vertex 54.765 59.964 3
      vertex 56.387 58.88 3
      vertex 54.765 59.964 0
    endloop
  endfacet
  facet normal 0.555646 0.831419 0
    outer loop
      vertex 54.765 59.964 0
      vertex 56.387 58.88 3
      vertex 56.387 58.88 0
    endloop
  endfacet
  facet normal 0.831419 0.555646 0
    outer loop
      vertex 53.681 61.586 0
      vertex 53.681 61.586 3
      vertex 54.765 59.964 3
    endloop
  endfacet
  facet normal 0.831419 0.555646 0
    outer loop
      vertex 54.765 59.964 0
      vertex 53.681 61.586 0
      vertex 54.765 59.964 3
    endloop
  endfacet
  facet normal 0.885371 0.464885 0
    outer loop
      vertex 71.416 62.538 0
      vertex 71.416 62.538 3
      vertex 72.306 60.843 3
    endloop
  endfacet
  facet normal 0.885371 0.464885 0
    outer loop
      vertex 72.306 60.843 0
      vertex 71.416 62.538 0
      vertex 72.306 60.843 3
    endloop
  endfacet
  facet normal 1 0 0
    outer loop
      vertex 71.416 62.538 0
      vertex 71.416 64.452 0
      vertex 71.416 64.452 3
    endloop
  endfacet
  facet normal 1 0 0
    outer loop
      vertex 71.416 62.538 3
      vertex 71.416 62.538 0
      vertex 71.416 64.452 3
    endloop
  endfacet
  facet normal 0.885371 -0.464885 0
    outer loop
      vertex 71.416 64.452 0
      vertex 72.306 66.147 0
      vertex 72.306 66.147 3
    endloop
  endfacet
  facet normal 0.885371 -0.464885 0
    outer loop
      vertex 71.416 64.452 3
      vertex 71.416 64.452 0
      vertex 72.306 66.147 3
    endloop
  endfacet
  facet normal 0.568123 -0.822943 0
    outer loop
      vertex 72.306 66.147 0
      vertex 73.882 67.235 0
      vertex 73.882 67.235 3
    endloop
  endfacet
  facet normal 0.568123 -0.822943 0
    outer loop
      vertex 72.306 66.147 3
      vertex 72.306 66.147 0
      vertex 73.882 67.235 3
    endloop
  endfacet
  facet normal 0.12069 -0.99269 0
    outer loop
      vertex 73.882 67.235 0
      vertex 75.782 67.466 0
      vertex 75.782 67.466 3
    endloop
  endfacet
  facet normal 0.12069 -0.99269 0
    outer loop
      vertex 73.882 67.235 3
      vertex 73.882 67.235 0
      vertex 75.782 67.466 3
    endloop
  endfacet
  facet normal -0.35467 -0.934992 0
    outer loop
      vertex 75.782 67.466 0
      vertex 77.572 66.787 0
      vertex 77.572 66.787 3
    endloop
  endfacet
  facet normal -0.35467 -0.934992 0
    outer loop
      vertex 75.782 67.466 3
      vertex 75.782 67.466 0
      vertex 77.572 66.787 3
    endloop
  endfacet
  facet normal -0.748388 -0.663261 0
    outer loop
      vertex 78.842 65.354 0
      vertex 78.842 65.354 3
      vertex 77.572 66.787 0
    endloop
  endfacet
  facet normal -0.748388 -0.663261 0
    outer loop
      vertex 77.572 66.787 0
      vertex 78.842 65.354 3
      vertex 77.572 66.787 3
    endloop
  endfacet
  facet normal -0.970966 -0.239216 0
    outer loop
      vertex 79.3 63.495 0
      vertex 79.3 63.495 3
      vertex 78.842 65.354 0
    endloop
  endfacet
  facet normal -0.970966 -0.239216 0
    outer loop
      vertex 78.842 65.354 0
      vertex 79.3 63.495 3
      vertex 78.842 65.354 3
    endloop
  endfacet
  facet normal -0.970966 0.239216 0
    outer loop
      vertex 78.842 61.636 3
      vertex 79.3 63.495 3
      vertex 78.842 61.636 0
    endloop
  endfacet
  facet normal -0.970966 0.239216 0
    outer loop
      vertex 78.842 61.636 0
      vertex 79.3 63.495 3
      vertex 79.3 63.495 0
    endloop
  endfacet
  facet normal -0.748388 0.663261 0
    outer loop
      vertex 77.572 60.203 3
      vertex 78.842 61.636 3
      vertex 77.572 60.203 0
    endloop
  endfacet
  facet normal -0.748388 0.663261 0
    outer loop
      vertex 77.572 60.203 0
      vertex 78.842 61.636 3
      vertex 78.842 61.636 0
    endloop
  endfacet
  facet normal -0.35467 0.934992 0
    outer loop
      vertex 75.782 59.524 3
      vertex 77.572 60.203 3
      vertex 75.782 59.524 0
    endloop
  endfacet
  facet normal -0.35467 0.934992 0
    outer loop
      vertex 75.782 59.524 0
      vertex 77.572 60.203 3
      vertex 77.572 60.203 0
    endloop
  endfacet
  facet normal 0.12069 0.99269 0
    outer loop
      vertex 73.882 59.755 3
      vertex 75.782 59.524 3
      vertex 73.882 59.755 0
    endloop
  endfacet
  facet normal 0.12069 0.99269 0
    outer loop
      vertex 73.882 59.755 0
      vertex 75.782 59.524 3
      vertex 75.782 59.524 0
    endloop
  endfacet
  facet normal 0.568123 0.822943 0
    outer loop
      vertex 72.306 60.843 3
      vertex 73.882 59.755 3
      vertex 72.306 60.843 0
    endloop
  endfacet
  facet normal 0.568123 0.822943 0
    outer loop
      vertex 72.306 60.843 0
      vertex 73.882 59.755 3
      vertex 73.882 59.755 0
    endloop
  endfacet
endsolid OpenSCAD_Model
